<svg width="831" height="1492" viewBox="0 0 831 1492" fill="none" xmlns="http://www.w3.org/2000/svg">
<g clip-path="url(#clip0_33_10)">
<path d="M822.868 464.985C825.503 464.985 828.118 465.024 830.713 465.083V467.089C828.098 467.01 825.483 466.99 822.868 466.99C743.139 466.99 670.961 499.314 618.699 551.556C566.458 603.798 534.134 675.996 534.134 755.725C534.134 835.453 566.458 907.632 618.699 959.893C670.941 1012.13 743.139 1044.46 822.868 1044.46C825.503 1044.46 828.118 1044.42 830.713 1044.36V1046.37C828.098 1046.44 825.483 1046.46 822.868 1046.46C742.589 1046.46 669.899 1013.92 617.284 961.309C564.669 908.694 532.128 836.004 532.128 755.725C532.128 675.445 564.669 602.755 617.284 550.14C669.899 497.525 742.589 464.985 822.868 464.985ZM830.713 0.00195312V2.06645C826.977 3.0692 823.556 4.89775 820.666 7.37514C815.672 11.6614 812.29 17.8549 811.739 24.9332C811.189 32.0311 813.568 38.6571 817.835 43.6709C821.138 47.5443 825.581 50.4346 830.693 51.7913V53.8557C824.972 52.4401 819.978 49.2549 816.321 44.9686C811.7 39.5812 809.144 32.4243 809.754 24.7955C810.343 17.1667 813.981 10.4817 819.368 5.88084C822.612 3.10852 826.486 1.08335 830.713 0.0412768V0.00195312ZM709.93 1077.9C728.688 1077.9 745.676 1085.51 757.964 1097.8C770.253 1110.09 777.862 1127.08 777.862 1145.84C777.862 1164.59 770.253 1181.58 757.964 1193.87C745.676 1206.16 728.688 1213.77 709.93 1213.77C691.173 1213.77 674.185 1206.16 661.896 1193.87C649.608 1181.58 641.999 1164.59 641.999 1145.84C641.999 1127.08 649.608 1110.09 661.896 1097.8C674.185 1085.51 691.173 1077.9 709.93 1077.9ZM756.549 1099.22C744.614 1087.28 728.137 1079.91 709.93 1079.91C691.723 1079.91 675.247 1087.28 663.312 1099.22C651.377 1111.15 644.004 1127.63 644.004 1145.84C644.004 1164.04 651.377 1180.54 663.312 1192.45C675.247 1204.39 691.723 1211.76 709.93 1211.76C728.137 1211.76 744.633 1204.39 756.549 1192.45C768.483 1180.52 775.857 1164.04 775.857 1145.84C775.857 1127.63 768.483 1111.13 756.549 1099.22ZM717.323 295.441C736.081 295.441 753.068 303.05 765.357 315.339C777.646 327.627 785.255 344.615 785.255 363.373C785.255 382.13 777.646 399.118 765.357 411.406C753.068 423.695 736.081 431.304 717.323 431.304C698.566 431.304 681.578 423.695 669.289 411.406C657.001 399.118 649.392 382.13 649.392 363.373C649.392 344.615 657.001 327.627 669.289 315.339C681.578 303.05 698.566 295.441 717.323 295.441ZM763.941 316.754C752.007 304.82 735.53 297.446 717.323 297.446C699.116 297.446 682.62 304.82 670.705 316.754C658.77 328.689 651.397 345.166 651.397 363.373C651.397 381.579 658.77 398.076 670.705 409.991C682.64 421.925 699.116 429.299 717.323 429.299C735.53 429.299 752.026 421.925 763.941 409.991C775.876 398.056 783.249 381.579 783.249 363.373C783.249 345.166 775.876 328.669 763.941 316.754ZM704.209 109.224L758.534 103.207C760.402 103.01 762.27 102.991 764.138 103.148C770.037 103.679 775.798 105.96 780.261 109.538C784.763 113.136 787.929 118.032 788.558 123.695C788.696 124.933 788.715 126.192 788.597 127.47L783.721 182.326C783.033 190.132 780.516 197.545 776.112 203.05C772.16 207.985 766.694 211.386 759.675 212.173L726.309 215.869C719.25 216.656 713.116 214.513 708.141 210.521C702.636 206.117 698.585 199.452 696.285 191.98L680.182 139.444C679.828 138.264 679.572 137.065 679.454 135.905C678.825 130.144 680.87 124.599 684.527 120.057C688.145 115.555 693.355 112.035 699.077 110.285C700.768 109.774 702.479 109.4 704.209 109.224ZM758.751 105.193L704.425 111.209C702.793 111.386 701.2 111.721 699.647 112.192C694.299 113.824 689.443 117.108 686.081 121.296C682.738 125.445 680.87 130.478 681.44 135.669C681.558 136.73 681.775 137.792 682.089 138.854L698.192 191.39C700.375 198.488 704.209 204.8 709.38 208.948C713.961 212.605 719.584 214.572 726.073 213.864L759.439 210.167C765.888 209.46 770.902 206.333 774.539 201.791C778.688 196.601 781.067 189.562 781.735 182.13L786.612 127.273C786.71 126.113 786.71 124.992 786.572 123.891C786.002 118.779 783.131 114.355 779.022 111.072C774.873 107.749 769.486 105.606 763.981 105.114C762.231 104.957 760.481 104.977 758.77 105.153L758.751 105.193ZM525.443 163.608L575.856 142.491C577.567 141.784 579.376 141.233 581.204 140.859C587.005 139.699 593.178 140.27 598.467 142.432C603.796 144.615 608.22 148.41 610.422 153.659C610.894 154.78 611.267 155.979 611.523 157.257L622.356 211.249C623.89 218.917 623.576 226.742 620.902 233.29C618.503 239.149 614.216 243.966 607.708 246.699L576.741 259.676C570.213 262.409 563.725 262.094 557.826 259.696C551.299 257.022 545.518 251.772 541.212 245.264L510.913 199.432C510.225 198.39 509.655 197.328 509.203 196.247C506.961 190.899 507.354 185 509.576 179.613C511.778 174.265 515.77 169.428 520.764 166.125C522.219 165.161 523.772 164.316 525.384 163.647L525.443 163.608ZM576.623 144.32L526.21 165.437C524.716 166.066 523.28 166.833 521.924 167.737C517.264 170.824 513.528 175.346 511.464 180.321C509.439 185.236 509.065 190.604 511.09 195.421C511.503 196.404 512.014 197.348 512.624 198.272L542.923 244.104C547.012 250.297 552.478 255.272 558.613 257.788C564.039 260.01 569.997 260.305 576.014 257.769L606.981 244.792C612.958 242.275 616.89 237.871 619.093 232.484C621.609 226.329 621.904 218.897 620.43 211.583L609.596 157.592C609.36 156.471 609.026 155.39 608.613 154.367C606.627 149.629 602.616 146.188 597.74 144.202C592.824 142.196 587.044 141.666 581.617 142.747C579.926 143.081 578.235 143.592 576.643 144.261L576.623 144.32ZM765.062 1389.66L710.874 1382.52C709.026 1382.29 707.197 1381.84 705.428 1381.25C699.824 1379.34 694.771 1375.72 691.291 1371.2C687.771 1366.62 685.864 1361.13 686.611 1355.47C686.769 1354.25 687.064 1353.01 687.477 1351.79L705.29 1299.69C707.827 1292.28 712.034 1285.67 717.638 1281.38C722.652 1277.53 728.766 1275.52 735.786 1276.45L769.073 1280.83C776.112 1281.76 781.558 1285.3 785.432 1290.35C789.718 1295.93 792.078 1303.39 792.51 1311.19L795.597 1366.05C795.676 1367.29 795.617 1368.49 795.459 1369.67C794.712 1375.41 791.389 1380.32 786.769 1383.84C782.188 1387.34 776.289 1389.52 770.312 1389.86C768.562 1389.96 766.812 1389.9 765.062 1389.66ZM711.13 1380.56L765.318 1387.7C766.93 1387.91 768.562 1387.95 770.194 1387.87C775.778 1387.56 781.283 1385.53 785.55 1382.27C789.777 1379.04 792.805 1374.6 793.493 1369.41C793.631 1368.37 793.67 1367.29 793.611 1366.17L790.524 1311.31C790.111 1303.9 787.89 1296.84 783.859 1291.59C780.3 1286.95 775.286 1283.68 768.818 1282.84L735.53 1278.45C729.101 1277.61 723.477 1279.46 718.857 1283C713.587 1287.05 709.596 1293.32 707.197 1300.36L689.384 1352.46C689.01 1353.56 688.755 1354.66 688.617 1355.75C687.948 1360.84 689.698 1365.83 692.884 1370C696.128 1374.21 700.847 1377.59 706.077 1379.38C707.728 1379.95 709.439 1380.34 711.149 1380.58L711.13 1380.56ZM253.854 400.848L285.392 356.216C286.473 354.702 287.712 353.286 289.069 351.988C293.374 347.918 298.919 345.126 304.542 344.163C310.225 343.18 315.986 344.065 320.626 347.348C321.629 348.056 322.592 348.882 323.477 349.825L361.286 389.857C366.654 395.559 370.547 402.362 371.747 409.303C372.808 415.535 371.747 421.886 367.657 427.647L348.29 455.056C344.2 460.856 338.518 464.022 332.246 465.103C325.305 466.302 317.618 464.906 310.52 461.662L260.539 438.835C259.418 438.323 258.357 437.714 257.413 437.045C252.674 433.703 249.883 428.493 248.919 422.732C247.956 417.049 248.781 410.817 251.259 405.37C251.986 403.778 252.851 402.244 253.874 400.809L253.854 400.848ZM287.043 357.376L255.506 402.008C254.562 403.345 253.756 404.761 253.068 406.235C250.748 411.328 249.981 417.128 250.885 422.437C251.77 427.686 254.306 432.425 258.573 435.433C259.438 436.043 260.382 436.593 261.385 437.045L311.365 459.873C318.109 462.96 325.384 464.277 331.931 463.156C337.712 462.173 342.922 459.244 346.678 453.935L366.045 426.526C369.78 421.237 370.783 415.398 369.8 409.657C368.679 403.109 364.983 396.66 359.871 391.233L322.061 351.202C321.275 350.356 320.41 349.629 319.525 349C315.337 346.031 310.107 345.264 304.916 346.149C299.686 347.053 294.495 349.668 290.484 353.463C289.226 354.662 288.066 355.98 287.063 357.376H287.043ZM173.811 578.06L190.838 526.133C191.428 524.364 192.195 522.653 193.119 521.021C196.029 515.87 200.512 511.564 205.604 508.988C210.736 506.393 216.497 505.528 221.923 507.297C223.083 507.671 224.243 508.182 225.364 508.831L273.28 535.984C280.083 539.838 285.805 545.205 288.99 551.497C291.841 557.14 292.686 563.53 290.484 570.235L280.024 602.126C277.822 608.87 273.319 613.569 267.637 616.44C261.345 619.625 253.599 620.549 245.852 619.547L191.369 612.429C190.13 612.272 188.95 611.997 187.849 611.623C182.344 609.814 178.136 605.646 175.521 600.455C172.926 595.304 171.884 589.11 172.651 583.172C172.887 581.422 173.26 579.712 173.811 578.06ZM192.745 526.743L175.718 578.67C175.207 580.223 174.853 581.816 174.637 583.428C173.909 588.973 174.892 594.753 177.311 599.57C179.709 604.328 183.504 608.123 188.479 609.755C189.501 610.089 190.543 610.325 191.644 610.483L246.127 617.6C253.481 618.564 260.834 617.679 266.752 614.69C271.982 612.036 276.111 607.73 278.137 601.536L288.597 569.645C290.622 563.471 289.855 557.612 287.22 552.421C284.212 546.483 278.785 541.41 272.317 537.734L224.401 510.581C223.398 510.011 222.376 509.558 221.314 509.224C216.438 507.631 211.208 508.418 206.508 510.797C201.77 513.196 197.582 517.207 194.849 522.024C193.984 523.538 193.276 525.131 192.745 526.782V526.743ZM368.679 266.951L411.011 232.366C412.447 231.186 414.02 230.164 415.671 229.279C420.901 226.506 426.996 225.307 432.659 225.877C438.4 226.447 443.709 228.826 447.327 233.25C448.113 234.194 448.801 235.256 449.411 236.396L475.148 285.079C478.805 292 480.732 299.589 480.024 306.609C479.395 312.901 476.643 318.74 471.177 323.203L445.184 344.438C439.698 348.921 433.386 350.474 427.055 349.825C420.036 349.118 412.997 345.736 407.02 340.702L364.944 305.35C364 304.564 363.154 303.699 362.407 302.775C358.73 298.292 357.452 292.511 358.042 286.711C358.632 280.97 361.09 275.189 364.944 270.608C366.084 269.271 367.323 268.013 368.679 266.911V266.951ZM412.27 233.919L369.938 268.504C368.679 269.527 367.519 270.687 366.477 271.925C362.879 276.212 360.579 281.599 360.028 286.967C359.478 292.256 360.657 297.505 363.961 301.556C364.629 302.362 365.376 303.148 366.241 303.856L408.318 339.208C414 343.986 420.665 347.21 427.252 347.879C433.092 348.469 438.892 347.053 443.945 342.924L469.938 321.689C474.952 317.58 477.468 312.232 478.058 306.451C478.727 299.845 476.898 292.629 473.398 286.042L447.661 237.36C447.11 236.337 446.501 235.394 445.793 234.548C442.549 230.576 437.712 228.414 432.482 227.902C427.193 227.372 421.511 228.512 416.615 231.088C415.081 231.894 413.607 232.857 412.27 233.958V233.919ZM584.743 1353.27L534.684 1331.34C532.974 1330.6 531.342 1329.67 529.808 1328.59C524.952 1325.19 521.098 1320.31 519.034 1315.01C516.93 1309.64 516.635 1303.82 518.916 1298.61C519.407 1297.49 520.017 1296.39 520.764 1295.32L552.36 1250.22C556.863 1243.81 562.742 1238.64 569.309 1236.06C575.207 1233.76 581.637 1233.55 588.106 1236.38L618.857 1249.83C625.365 1252.68 629.612 1257.59 631.932 1263.51C634.507 1270.08 634.684 1277.88 632.935 1285.49L620.646 1339.05C620.371 1340.25 619.997 1341.41 619.505 1342.49C617.185 1347.8 612.644 1351.6 607.197 1353.7C601.81 1355.78 595.557 1356.24 589.718 1354.9C588.007 1354.51 586.336 1353.96 584.724 1353.27H584.743ZM535.471 1329.52L585.53 1351.44C587.024 1352.09 588.577 1352.6 590.17 1352.95C595.616 1354.21 601.476 1353.78 606.489 1351.83C611.444 1349.91 615.593 1346.48 617.677 1341.69C618.11 1340.72 618.444 1339.68 618.699 1338.6L630.988 1285.04C632.64 1277.81 632.482 1270.41 630.064 1264.24C627.921 1258.77 624.028 1254.27 618.051 1251.66L587.299 1238.21C581.362 1235.61 575.443 1235.81 570.017 1237.93C563.823 1240.35 558.259 1245.27 553.973 1251.38L522.376 1296.48C521.707 1297.43 521.157 1298.41 520.724 1299.43C518.66 1304.13 518.955 1309.42 520.882 1314.32C522.828 1319.27 526.426 1323.81 530.949 1326.98C532.364 1327.98 533.898 1328.85 535.471 1329.54V1329.52ZM420.174 1267.09L378.274 1232.01C376.859 1230.81 375.541 1229.48 374.362 1228C370.665 1223.38 368.325 1217.62 367.834 1211.94C367.323 1206.2 368.66 1200.53 372.317 1196.17C373.103 1195.23 374.008 1194.36 375.01 1193.53L417.991 1159.13C424.106 1154.23 431.204 1150.91 438.243 1150.3C444.554 1149.75 450.787 1151.34 456.194 1155.86L481.932 1177.41C487.378 1181.97 490.072 1187.87 490.642 1194.22C491.271 1201.24 489.246 1208.79 485.451 1215.6L458.632 1263.55C458.023 1264.63 457.335 1265.62 456.587 1266.54C452.871 1270.98 447.445 1273.34 441.625 1273.85C435.884 1274.35 429.749 1273.03 424.519 1270.1C422.985 1269.23 421.53 1268.25 420.193 1267.13L420.174 1267.09ZM379.552 1230.48L421.452 1265.56C422.71 1266.6 424.047 1267.52 425.463 1268.33C430.339 1271.06 436.08 1272.3 441.448 1271.83C446.757 1271.38 451.692 1269.23 455.034 1265.24C455.722 1264.44 456.332 1263.53 456.863 1262.57L483.681 1214.61C487.299 1208.14 489.226 1200.99 488.636 1194.38C488.125 1188.54 485.648 1183.11 480.634 1178.93L454.897 1157.38C449.922 1153.21 444.2 1151.75 438.4 1152.26C431.774 1152.85 425.05 1156 419.23 1160.66L376.249 1195.07C375.345 1195.78 374.558 1196.58 373.831 1197.43C370.528 1201.36 369.328 1206.51 369.8 1211.76C370.272 1217.05 372.454 1222.44 375.915 1226.74C376.996 1228.1 378.215 1229.34 379.552 1230.46V1230.48ZM287.181 1139.21L256.725 1093.83C255.683 1092.28 254.798 1090.62 254.09 1088.89C251.829 1083.43 251.2 1077.25 252.281 1071.65C253.382 1065.99 256.253 1060.94 260.991 1057.75C262.014 1057.06 263.115 1056.47 264.314 1055.98L315.199 1034.92C322.435 1031.93 330.181 1030.72 337.102 1032.09C343.316 1033.31 348.86 1036.59 352.793 1042.45L371.511 1070.31C375.463 1076.21 376.406 1082.62 375.187 1088.87C373.831 1095.8 369.8 1102.48 364.236 1107.97L325.109 1146.54C324.224 1147.41 323.3 1148.18 322.317 1148.82C317.5 1152.05 311.64 1152.82 305.919 1151.67C300.256 1150.55 294.731 1147.57 290.524 1143.3C289.285 1142.06 288.184 1140.68 287.201 1139.23L287.181 1139.21ZM258.376 1092.73L288.833 1138.11C289.737 1139.46 290.779 1140.72 291.92 1141.88C295.852 1145.85 301.003 1148.65 306.273 1149.71C311.503 1150.75 316.831 1150.08 321.176 1147.17C322.061 1146.58 322.887 1145.89 323.693 1145.13L362.82 1106.55C368.109 1101.34 371.943 1095.01 373.221 1088.5C374.362 1082.74 373.477 1076.84 369.859 1071.43L351.141 1043.57C347.523 1038.19 342.431 1035.18 336.729 1034.06C330.201 1032.78 322.867 1033.92 315.966 1036.77L265.081 1057.83C264.019 1058.26 263.017 1058.81 262.112 1059.42C257.846 1062.27 255.25 1066.89 254.247 1072.04C253.225 1077.27 253.815 1083.04 255.938 1088.15C256.607 1089.76 257.413 1091.29 258.376 1092.73ZM193.06 974.109L176.898 921.907C176.347 920.137 175.974 918.289 175.797 916.421C175.207 910.542 176.367 904.427 179.021 899.394C181.715 894.301 185.903 890.271 191.369 888.58C192.549 888.226 193.768 887.97 195.065 887.833L249.843 882.249C257.629 881.462 265.396 882.524 271.628 885.807C277.232 888.757 281.597 893.475 283.681 900.239L293.61 932.308C295.714 939.091 294.77 945.501 291.802 951.144C288.518 957.377 282.737 962.626 275.836 966.283L227.291 992.001C226.21 992.571 225.089 993.043 223.949 993.397C218.404 995.108 212.584 994.144 207.433 991.411C202.34 988.698 197.897 984.254 195.085 978.965C194.259 977.412 193.591 975.8 193.06 974.109ZM178.805 921.317L194.967 973.519C195.439 975.072 196.088 976.586 196.855 978.021C199.47 982.957 203.618 987.105 208.357 989.642C213.056 992.139 218.365 993.023 223.359 991.49C224.361 991.175 225.364 990.762 226.347 990.251L274.892 964.533C281.459 961.053 286.925 956.099 290.032 950.239C292.765 945.049 293.63 939.15 291.703 932.917L281.774 900.849C279.867 894.655 275.836 890.31 270.685 887.597C264.806 884.49 257.433 883.487 250.02 884.254L195.242 889.838C194.102 889.956 192.981 890.192 191.939 890.507C187.043 892.021 183.229 895.697 180.771 900.357C178.294 905.056 177.212 910.758 177.763 916.264C177.94 917.994 178.274 919.704 178.785 921.356L178.805 921.317ZM149.823 783.055V728.395C149.823 726.546 150.02 724.679 150.394 722.83C151.554 717.03 154.483 711.544 158.514 707.514C162.584 703.444 167.794 700.829 173.496 700.829C174.715 700.829 175.974 700.947 177.252 701.202L231.243 712.075C238.931 713.629 246.029 716.932 251.003 721.926C255.486 726.409 258.258 732.209 258.258 739.268V772.83C258.258 779.928 255.466 785.788 250.964 790.29C245.989 795.265 238.911 798.568 231.223 800.023L177.232 810.247C176.013 810.483 174.814 810.581 173.634 810.581C167.834 810.581 162.545 807.927 158.435 803.798C154.365 799.708 151.436 794.144 150.335 788.265C150 786.535 149.843 784.785 149.843 783.035L149.823 783.055ZM151.829 728.395V783.055C151.829 784.687 151.986 786.318 152.281 787.911C153.323 793.397 156.056 798.587 159.851 802.402C163.606 806.177 168.404 808.595 173.634 808.595C174.696 808.595 175.777 808.497 176.858 808.3L230.85 798.076C238.144 796.7 244.849 793.574 249.529 788.894C253.677 784.746 256.253 779.358 256.253 772.85V739.287C256.253 732.799 253.697 727.471 249.588 723.361C244.888 718.662 238.144 715.516 230.85 714.061L176.858 703.188C175.738 702.972 174.617 702.854 173.496 702.854C168.364 702.854 163.646 705.233 159.93 708.949C156.174 712.705 153.441 717.836 152.36 723.243C152.026 724.934 151.829 726.684 151.829 728.414V728.395ZM454.543 1350.44C462.211 1350.44 469.132 1353.54 474.145 1358.56C479.159 1363.57 482.266 1370.51 482.266 1378.16C482.266 1385.81 479.159 1392.75 474.145 1397.76C469.132 1402.78 462.191 1405.88 454.543 1405.88C446.874 1405.88 439.954 1402.78 434.94 1397.76C429.926 1392.75 426.819 1385.81 426.819 1378.16C426.819 1370.49 429.926 1363.57 434.94 1358.56C439.954 1353.54 446.894 1350.44 454.543 1350.44ZM472.73 1359.97C468.07 1355.31 461.641 1352.44 454.543 1352.44C447.445 1352.44 440.996 1355.33 436.355 1359.97C431.696 1364.63 428.825 1371.06 428.825 1378.16C428.825 1385.26 431.715 1391.71 436.355 1396.35C441.015 1401.01 447.445 1403.88 454.543 1403.88C461.641 1403.88 468.09 1400.99 472.73 1396.35C477.39 1391.69 480.26 1385.26 480.26 1378.16C480.26 1371.06 477.37 1364.61 472.73 1359.97ZM117.893 992.905C125.561 992.905 132.482 996.012 137.495 1001.03C142.509 1006.04 145.616 1012.98 145.616 1020.63C145.616 1028.28 142.509 1035.22 137.495 1040.23C132.482 1045.25 125.541 1048.35 117.893 1048.35C110.244 1048.35 103.303 1045.25 98.2897 1040.23C93.2759 1035.22 90.1693 1028.28 90.1693 1020.63C90.1693 1012.96 93.2759 1006.04 98.2897 1001.03C103.303 996.012 110.244 992.905 117.893 992.905ZM136.099 1002.44C131.44 997.782 125.01 994.911 117.893 994.911C110.795 994.911 104.346 997.801 99.7053 1002.44C95.0455 1007.1 92.1749 1013.53 92.1749 1020.63C92.1749 1027.73 95.0651 1034.18 99.7053 1038.82C104.365 1043.48 110.795 1046.35 117.893 1046.35C124.99 1046.35 131.44 1043.48 136.08 1038.82C140.74 1034.16 143.61 1027.73 143.61 1020.63C143.61 1013.53 140.72 1007.08 136.08 1002.42L136.099 1002.44ZM414.59 125.838C422.238 125.838 429.179 128.944 434.193 133.958C439.206 138.972 442.313 145.913 442.313 153.561C442.313 161.209 439.206 168.15 434.193 173.164C429.179 178.178 422.238 181.284 414.59 181.284C406.922 181.284 400.001 178.178 394.987 173.164C389.973 168.15 386.867 161.209 386.867 153.561C386.867 145.893 389.973 138.972 394.987 133.958C400.001 128.944 406.941 125.838 414.59 125.838ZM432.777 135.374C428.117 130.714 421.688 127.843 414.59 127.843C407.492 127.843 401.043 130.734 396.403 135.374C391.743 140.034 388.872 146.463 388.872 153.561C388.872 160.659 391.762 167.108 396.403 171.748C401.062 176.408 407.492 179.279 414.59 179.279C421.688 179.279 428.137 176.388 432.777 171.748C437.437 167.088 440.307 160.659 440.307 153.561C440.307 146.463 437.417 140.014 432.777 135.374ZM109.163 470.667C116.811 470.667 123.752 473.774 128.766 478.788C133.779 483.801 136.886 490.742 136.886 498.39C136.886 506.039 133.779 512.98 128.766 517.993C123.752 523.007 116.811 526.114 109.163 526.114C101.495 526.114 94.5736 523.007 89.5598 517.993C84.5461 512.98 81.4395 506.039 81.4395 498.39C81.4395 490.722 84.5461 483.801 89.5598 478.788C94.5736 473.774 101.514 470.667 109.163 470.667ZM127.35 480.203C122.69 475.543 116.261 472.673 109.163 472.673C102.065 472.673 95.6157 475.563 90.9755 480.203C86.3156 484.863 83.445 491.292 83.445 498.39C83.445 505.488 86.3353 511.937 90.9755 516.578C95.6353 521.237 102.065 524.108 109.163 524.108C116.261 524.108 122.71 521.218 127.35 516.578C132.01 511.918 134.88 505.488 134.88 498.39C134.88 491.292 131.99 484.843 127.35 480.203ZM612.978 27.2926C623.949 27.2926 633.878 31.7362 641.075 38.9324C648.271 46.1286 652.714 56.0579 652.714 67.0292C652.714 78.0005 648.271 87.9297 641.075 95.126C633.878 102.322 623.949 106.766 612.978 106.766C602.007 106.766 592.077 102.322 584.881 95.126C577.685 87.9297 573.241 78.0005 573.241 67.0292C573.241 56.0579 577.685 46.1286 584.881 38.9324C592.077 31.7362 602.007 27.2926 612.978 27.2926ZM639.659 40.3481C632.836 33.5254 623.399 29.2981 612.978 29.2981C602.557 29.2981 593.119 33.5254 586.297 40.3481C579.474 47.1707 575.247 56.6084 575.247 67.0292C575.247 77.45 579.474 86.8876 586.297 93.7103C593.119 100.533 602.557 104.76 612.978 104.76C623.399 104.76 632.836 100.533 639.659 93.7103C646.482 86.8876 650.709 77.45 650.709 67.0292C650.709 56.6084 646.482 47.1707 639.659 40.3481ZM237.397 240.938C248.369 240.938 258.298 245.382 265.494 252.578C272.69 259.774 277.134 269.703 277.134 280.675C277.134 291.646 272.69 301.575 265.494 308.772C258.298 315.968 248.369 320.411 237.397 320.411C226.426 320.411 216.497 315.968 209.3 308.772C202.104 301.575 197.661 291.646 197.661 280.675C197.661 269.703 202.104 259.774 209.3 252.578C216.497 245.382 226.426 240.938 237.397 240.938ZM264.078 253.994C257.256 247.171 247.818 242.944 237.397 242.944C226.976 242.944 217.539 247.171 210.716 253.994C203.893 260.816 199.666 270.254 199.666 280.675C199.666 291.096 203.893 300.533 210.716 307.356C217.539 314.179 226.976 318.406 237.397 318.406C247.818 318.406 257.256 314.179 264.078 307.356C270.901 300.533 275.128 291.096 275.128 280.675C275.128 270.254 270.901 260.816 264.078 253.994ZM39.7171 717.325C50.6884 717.325 60.6176 721.769 67.8138 728.965C75.0101 736.161 79.4536 746.09 79.4536 757.062C79.4536 768.033 75.0101 777.962 67.8138 785.158C60.6176 792.355 50.6884 796.798 39.7171 796.798C28.7457 796.798 18.8165 792.355 11.6203 785.158C4.42405 777.962 -0.0195312 768.033 -0.0195312 757.062C-0.0195312 746.09 4.42405 736.161 11.6203 728.965C18.8165 721.769 28.7457 717.325 39.7171 717.325ZM66.3982 730.381C59.5755 723.558 50.1378 719.331 39.7171 719.331C29.2963 719.331 19.8586 723.558 13.0359 730.381C6.21327 737.203 1.98598 746.641 1.98598 757.062C1.98598 767.482 6.21327 776.92 13.0359 783.743C19.8586 790.565 29.2963 794.793 39.7171 794.793C50.1378 794.793 59.5755 790.565 66.3982 783.743C73.2208 776.92 77.4481 767.482 77.4481 757.062C77.4481 746.641 73.2208 737.203 66.3982 730.381ZM237.378 1191.73C248.349 1191.73 258.278 1196.17 265.474 1203.37C272.671 1210.56 277.114 1220.49 277.114 1231.46C277.114 1242.43 272.671 1252.36 265.474 1259.56C258.278 1266.76 248.349 1271.2 237.378 1271.2C226.406 1271.2 216.477 1266.76 209.281 1259.56C202.085 1252.36 197.641 1242.43 197.641 1231.46C197.641 1220.49 202.085 1210.56 209.281 1203.37C216.477 1196.17 226.406 1191.73 237.378 1191.73ZM264.059 1204.78C257.236 1197.96 247.798 1193.73 237.378 1193.73C226.957 1193.73 217.519 1197.96 210.696 1204.78C203.874 1211.6 199.646 1221.04 199.646 1231.46C199.646 1241.88 203.874 1251.32 210.696 1258.14C217.519 1264.97 226.957 1269.19 237.378 1269.19C247.798 1269.19 257.236 1264.97 264.059 1258.14C270.881 1251.32 275.109 1241.88 275.109 1231.46C275.109 1221.04 270.881 1211.6 264.059 1204.78ZM683.367 1412.51C694.338 1412.51 704.268 1416.95 711.464 1424.15C718.66 1431.34 723.104 1441.27 723.104 1452.25C723.104 1463.22 718.66 1473.15 711.464 1480.34C704.268 1487.54 694.338 1491.98 683.367 1491.98C672.396 1491.98 662.467 1487.54 655.27 1480.34C648.074 1473.15 643.631 1463.22 643.631 1452.25C643.631 1441.27 648.074 1431.34 655.27 1424.15C662.467 1416.95 672.396 1412.51 683.367 1412.51ZM710.048 1425.56C703.226 1418.74 693.788 1414.51 683.367 1414.51C672.946 1414.51 663.509 1418.74 656.686 1425.56C649.863 1432.39 645.636 1441.82 645.636 1452.25C645.636 1462.67 649.863 1472.1 656.686 1478.93C663.509 1485.75 672.946 1489.98 683.367 1489.98C693.788 1489.98 703.226 1485.75 710.048 1478.93C716.871 1472.1 721.098 1462.67 721.098 1452.25C721.098 1441.82 716.871 1432.39 710.048 1425.56ZM540.681 371.336C559.439 371.336 576.426 378.945 588.715 391.233C601.004 403.522 608.613 420.51 608.613 439.267C608.613 458.025 601.004 475.012 588.715 487.301C576.426 499.59 559.439 507.199 540.681 507.199C521.924 507.199 504.936 499.59 492.647 487.301C480.359 475.012 472.749 458.025 472.749 439.267C472.749 420.51 480.359 403.522 492.647 391.233C504.936 378.945 521.924 371.336 540.681 371.336ZM587.299 392.649C575.365 380.714 558.888 373.341 540.681 373.341C522.474 373.341 505.998 380.714 494.063 392.649C482.128 404.584 474.755 421.06 474.755 439.267C474.755 457.474 482.128 473.97 494.063 485.885C505.998 497.82 522.474 505.193 540.681 505.193C558.888 505.193 575.384 497.82 587.299 485.885C599.234 473.951 606.607 457.474 606.607 439.267C606.607 421.06 599.234 404.564 587.299 392.649ZM419.997 513.609C438.754 513.609 455.742 521.218 468.031 533.506C480.319 545.795 487.928 562.783 487.928 581.54C487.928 600.298 480.319 617.286 468.031 629.574C455.742 641.863 438.754 649.472 419.997 649.472C401.239 649.472 384.252 641.863 371.963 629.574C359.674 617.286 352.065 600.298 352.065 581.54C352.065 562.783 359.674 545.795 371.963 533.506C384.252 521.218 401.239 513.609 419.997 513.609ZM466.615 534.922C454.68 522.987 438.204 515.614 419.997 515.614C401.79 515.614 385.294 522.987 373.379 534.922C361.444 546.857 354.071 563.333 354.071 581.54C354.071 599.747 361.444 616.244 373.379 628.159C385.313 640.093 401.79 647.466 419.997 647.466C438.204 647.466 454.7 640.093 466.615 628.159C478.55 616.224 485.923 599.747 485.923 581.54C485.923 563.333 478.55 546.837 466.615 534.922ZM378.235 687.773C396.992 687.773 413.98 695.382 426.269 707.671C438.558 719.96 446.167 736.948 446.167 755.705C446.167 774.462 438.558 791.45 426.269 803.739C413.98 816.028 396.992 823.637 378.235 823.637C359.478 823.637 342.49 816.028 330.201 803.739C317.912 791.45 310.303 774.462 310.303 755.705C310.303 736.948 317.912 719.96 330.201 707.671C342.49 695.382 359.478 687.773 378.235 687.773ZM424.853 709.087C412.919 697.152 396.442 689.779 378.235 689.779C360.028 689.779 343.532 697.152 331.617 709.087C319.682 721.021 312.309 737.498 312.309 755.705C312.309 773.912 319.682 790.388 331.617 802.323C343.552 814.258 360.028 821.631 378.235 821.631C396.442 821.631 412.938 814.258 424.853 802.323C436.788 790.388 444.161 773.912 444.161 755.705C444.161 737.498 436.788 721.002 424.853 709.087ZM414.885 869.901C433.642 869.901 450.63 877.51 462.919 889.799C475.207 902.087 482.816 919.075 482.816 937.833C482.816 956.59 475.207 973.578 462.919 985.867C450.63 998.155 433.642 1005.76 414.885 1005.76C396.127 1005.76 379.139 998.155 366.851 985.867C354.562 973.578 346.953 956.59 346.953 937.833C346.953 919.075 354.562 902.087 366.851 889.799C379.139 877.51 396.127 869.901 414.885 869.901ZM461.503 891.214C449.568 879.28 433.092 871.906 414.885 871.906C396.678 871.906 380.182 879.28 368.266 891.214C356.332 903.149 348.959 919.626 348.959 937.833C348.959 956.04 356.332 972.536 368.266 984.451C380.201 996.386 396.678 1003.76 414.885 1003.76C433.092 1003.76 449.588 996.386 461.503 984.451C473.438 972.516 480.811 956.04 480.811 937.833C480.811 919.626 473.438 903.129 461.503 891.214ZM529.69 1006.06C548.448 1006.06 565.435 1013.67 577.724 1025.96C590.013 1038.25 597.622 1055.23 597.622 1073.99C597.622 1092.75 590.013 1109.74 577.724 1122.02C565.435 1134.31 548.448 1141.92 529.69 1141.92C510.933 1141.92 493.945 1134.31 481.656 1122.02C469.368 1109.74 461.759 1092.75 461.759 1073.99C461.759 1055.23 469.368 1038.25 481.656 1025.96C493.945 1013.67 510.933 1006.06 529.69 1006.06ZM576.308 1027.37C564.374 1015.44 547.897 1008.06 529.69 1008.06C511.483 1008.06 495.007 1015.44 483.072 1027.37C471.137 1039.31 463.764 1055.78 463.764 1073.99C463.764 1092.2 471.137 1108.69 483.072 1120.61C495.007 1132.54 511.483 1139.92 529.69 1139.92C547.897 1139.92 564.393 1132.54 576.308 1120.61C588.243 1108.67 595.616 1092.2 595.616 1073.99C595.616 1055.78 588.243 1039.29 576.308 1027.37Z" fill="#E0C759"/>
</g>
<defs>
<clipPath id="clip0_33_10">
<rect width="830.713" height="1491.98" fill="white"/>
</clipPath>
</defs>
</svg>
