<svg width="18" height="11" viewBox="0 0 18 11" fill="none" xmlns="http://www.w3.org/2000/svg">
<path d="M5.4615 10.8075C3.94683 10.8075 2.65792 10.2858 1.59475 9.24225C0.531583 8.19858 0 6.92225 0 5.41325C0 3.90442 0.531583 2.625 1.59475 1.575C2.65792 0.525 3.94683 0 5.4615 0H14.1923C15.2499 0 16.149 0.363751 16.8895 1.09125C17.6298 1.81875 18 2.71133 18 3.769C18 4.82683 17.6298 5.7195 16.8895 6.447C16.149 7.1745 15.2499 7.53825 14.1923 7.53825H5.923C5.33583 7.53825 4.83008 7.33342 4.40575 6.92375C3.98142 6.51408 3.76925 6.01475 3.76925 5.42575C3.76925 4.83675 3.97808 4.33008 4.39575 3.90575C4.81342 3.48125 5.3225 3.269 5.923 3.269H14.2307V4.269H5.923C5.60383 4.269 5.33175 4.37833 5.10675 4.597C4.88175 4.81567 4.76925 5.08458 4.76925 5.40375C4.76925 5.72292 4.88175 5.99183 5.10675 6.2105C5.33175 6.429 5.60383 6.53825 5.923 6.53825H14.2115C14.9885 6.53442 15.6475 6.26733 16.1885 5.737C16.7295 5.20667 17 4.55067 17 3.769C17 2.99367 16.7263 2.33833 16.1788 1.803C15.6314 1.26767 14.9693 1 14.1923 1H5.4615C4.22683 0.996 3.17458 1.4235 2.30475 2.2825C1.43492 3.1415 1 4.18742 1 5.42025C1 6.63575 1.43492 7.66892 2.30475 8.51975C3.17458 9.37058 4.22683 9.79983 5.4615 9.8075H14.2307V10.8075H5.4615Z" fill="black"/>
</svg>
