<svg width="13" height="13" viewBox="0 0 13 13" fill="none" xmlns="http://www.w3.org/2000/svg">
<path d="M5.56103 7.50015L4.35403 6.29315C4.29024 6.22797 4.21375 6.1766 4.12929 6.1422C4.04483 6.10779 3.9542 6.0911 3.86303 6.09315C3.76685 6.09299 3.67159 6.11181 3.58271 6.14853C3.49382 6.18525 3.41305 6.23917 3.34503 6.30716C3.21584 6.44145 3.14409 6.62082 3.14503 6.80716C3.14347 6.89926 3.16178 6.9906 3.19871 7.07498C3.23564 7.15937 3.29032 7.23481 3.35903 7.29616L5.03903 8.99615C5.10623 9.06442 5.18642 9.11852 5.27487 9.15527C5.36333 9.19203 5.45825 9.2107 5.55403 9.21016C5.75015 9.21203 5.93912 9.13658 6.08003 9.00015L9.54803 5.51715C9.6198 5.45509 9.6774 5.37832 9.71691 5.29205C9.75642 5.20578 9.77692 5.11203 9.77703 5.01715C9.77484 4.9222 9.75381 4.82863 9.71516 4.74188C9.67651 4.65513 9.62101 4.57692 9.55189 4.51179C9.48276 4.44667 9.40139 4.39593 9.31249 4.36252C9.22359 4.3291 9.12894 4.31368 9.03403 4.31715C8.84397 4.31825 8.66153 4.39194 8.52403 4.52315L5.56103 7.50015ZM6.49503 13.0002C5.62609 13.006 4.76513 12.8341 3.96503 12.4951C2.40483 11.8387 1.16335 10.598 0.506031 9.03815C0.172442 8.2341 0.000732422 7.37215 0.000732422 6.50165C0.000732422 5.63115 0.172442 4.76919 0.506031 3.96515C0.830563 3.19429 1.30199 2.49394 1.89403 1.90315C2.48852 1.31371 3.18918 0.842081 3.95903 0.513152C4.75799 0.169694 5.6194 -0.00462428 6.48903 0.00115885C7.36446 -0.00546453 8.23185 0.168477 9.03703 0.512145C10.5925 1.16824 11.8306 2.40529 12.488 3.96016C12.8259 4.76453 12.9999 5.62821 12.9999 6.50066C12.9999 7.3731 12.8259 8.23678 12.488 9.04115C12.1592 9.81167 11.6876 10.513 11.098 11.1082C10.4953 11.7132 9.77813 12.1923 8.98839 12.5175C8.19864 12.8427 7.35208 13.0074 6.49803 13.0022L6.49503 13.0002Z" fill="#B4D729"/>
</svg>
