<svg width="8" height="13" viewBox="0 0 8 13" fill="white" xmlns="http://www.w3.org/2000/svg">
<path d="M3.75 6.15L7.25 9.65C7.55 9.95 7.7 10.3167 7.7 10.75C7.7 11.1833 7.55 11.55 7.25 11.85C6.95 12.15 6.58333 12.3 6.15 12.3C5.71667 12.3 5.35 12.15 5.05 11.85L0.475 7.275C0.325 7.125 0.208333 6.95 0.125 6.75C0.0416667 6.55 0 6.35 0 6.15C0 5.95 0.0416667 5.75 0.125 5.55C0.208333 5.35 0.325 5.175 0.475 5.025L5.05 0.45C5.35 0.15 5.71667 0 6.15 0C6.58333 0 6.95 0.15 7.25 0.45C7.55 0.75 7.7 1.11667 7.7 1.55C7.7 1.98333 7.55 2.35 7.25 2.65L3.75 6.15Z" fill="white"/>
</svg>
