<svg width="11" height="6" viewBox="0 0 11 6" fill="none" xmlns="http://www.w3.org/2000/svg">
<path d="M0.8 5.875C0.566667 5.875 0.375 5.79167 0.225 5.625C0.075 5.45833 0 5.275 0 5.075C0 5.00833 0.0833333 4.825 0.25 4.525L4.45 0.325C4.56667 0.208333 4.69583 0.125 4.8375 0.075C4.97917 0.025 5.125 0 5.275 0C5.425 0 5.57083 0.025 5.7125 0.075C5.85417 0.125 5.98333 0.208333 6.1 0.325L10.3 4.525C10.3833 4.60833 10.4458 4.69583 10.4875 4.7875C10.5292 4.87917 10.55 4.975 10.55 5.075C10.55 5.275 10.475 5.45833 10.325 5.625C10.175 5.79167 9.98333 5.875 9.75 5.875H0.8Z" fill="#E8EAED"/>
</svg>
