<svg width="208" height="208" viewBox="0 0 208 208" fill="white" xmlns="http://www.w3.org/2000/svg">
<path d="M22.1184 208C15.9375 208 10.7059 205.859 6.42353 201.576C2.14118 197.294 0 192.063 0 185.882V22.1184C0 15.9375 2.14118 10.7059 6.42353 6.42353C10.7059 2.14118 15.9375 0 22.1184 0H185.882C192.063 0 197.294 2.14118 201.576 6.42353C205.859 10.7059 208 15.9375 208 22.1184V185.882C208 192.063 205.859 197.294 201.576 201.576C197.294 205.859 192.063 208 185.882 208H22.1184ZM22.1184 189.647H185.882C186.824 189.647 187.686 189.255 188.469 188.469C189.255 187.686 189.647 186.824 189.647 185.882V22.1184C189.647 21.1762 189.255 20.3136 188.469 19.5306C187.686 18.7455 186.824 18.3529 185.882 18.3529H22.1184C21.1762 18.3529 20.3136 18.7455 19.5306 19.5306C18.7455 20.3136 18.3529 21.1762 18.3529 22.1184V185.882C18.3529 186.824 18.7455 187.686 19.5306 188.469C20.3136 189.255 21.1762 189.647 22.1184 189.647ZM39.7647 162.118H169.174L128.942 108.472L94.588 153.177L70.1174 121.882L39.7647 162.118Z" fill="white"/>
</svg>
