<svg width="9" height="6" viewBox="0 0 9 6" fill="black" xmlns="http://www.w3.org/2000/svg">
<path d="M3.10528 6C3.02498 6 2.94682 5.98526 2.87081 5.95579C2.79479 5.92632 2.7259 5.88421 2.66411 5.82948L0.187592 3.56333C0.0625306 3.44889 0 3.30957 0 3.14536C0 2.98116 0.061707 2.84222 0.185121 2.72854C0.308526 2.61486 0.459216 2.55802 0.637192 2.55802C0.815158 2.55802 0.971186 2.61515 1.10527 2.72943L3.10583 4.56005L7.90864 0.177842C8.03146 0.0636313 8.18083 0.0044209 8.35678 0.000210519C8.53273 -0.00399986 8.68502 0.0549454 8.81365 0.177046C8.93788 0.290727 9 0.430128 9 0.595251C9 0.760365 8.93748 0.899215 8.81245 1.0118L3.54755 5.82948C3.48502 5.88421 3.41576 5.92632 3.33975 5.95579C3.26373 5.98526 3.18558 6 3.10528 6Z" fill="black"/>
</svg>
