<svg width="8" height="13" viewBox="0 0 8 13" fill="white" xmlns="http://www.w3.org/2000/svg">
<path d="M3.95 6.15L0.45 2.65C0.15 2.35 0 1.98333 0 1.55C0 1.11667 0.15 0.75 0.45 0.45C0.75 0.15 1.11667 0 1.55 0C1.98333 0 2.35 0.15 2.65 0.45L7.225 5.025C7.375 5.175 7.49167 5.35 7.575 5.55C7.65833 5.75 7.7 5.95 7.7 6.15C7.7 6.35 7.65833 6.55 7.575 6.75C7.49167 6.95 7.375 7.125 7.225 7.275L2.65 11.85C2.35 12.15 1.98333 12.3 1.55 12.3C1.11667 12.3 0.75 12.15 0.45 11.85C0.15 11.55 0 11.1833 0 10.75C0 10.3167 0.15 9.95 0.45 9.65L3.95 6.15Z" fill="white"/>
</svg>
