<svg width="14" height="13" viewBox="0 0 14 13" fill="none" xmlns="http://www.w3.org/2000/svg">
<path d="M6.50438 7.27118L8.29138 9.05818C8.34022 9.11076 8.39931 9.15279 8.465 9.18169C8.5307 9.21058 8.60161 9.22572 8.67338 9.22618C8.74584 9.22531 8.81731 9.20919 8.88312 9.17886C8.94894 9.14854 9.00763 9.1047 9.05538 9.05019C9.11217 9.00327 9.15791 8.94439 9.1893 8.87775C9.22069 8.8111 9.23696 8.73835 9.23696 8.66469C9.23696 8.59102 9.22069 8.51826 9.1893 8.45161C9.15791 8.38497 9.11217 8.3261 9.05538 8.27919L7.26838 6.50719L9.05538 4.72018C9.1618 4.62081 9.225 4.48365 9.23138 4.33818C9.23282 4.26535 9.21773 4.19313 9.18724 4.12697C9.15676 4.0608 9.11167 4.00241 9.05538 3.95618C9.00957 3.89885 8.95144 3.85259 8.88532 3.82078C8.81919 3.78898 8.74675 3.77246 8.67338 3.77246C8.6 3.77246 8.52756 3.78898 8.46144 3.82078C8.39531 3.85259 8.33719 3.89885 8.29138 3.95618L6.50438 5.74318L4.71738 3.95618C4.6204 3.85103 4.48621 3.78788 4.34338 3.78018C4.2718 3.77937 4.20096 3.79479 4.13618 3.82527C4.07141 3.85575 4.01438 3.9005 3.96938 3.95618C3.91206 4.00199 3.86578 4.06011 3.83398 4.12624C3.80217 4.19236 3.78566 4.2648 3.78566 4.33818C3.78566 4.41156 3.80217 4.484 3.83398 4.55012C3.86578 4.61625 3.91206 4.67437 3.96938 4.72018L5.74138 6.50719L3.95438 8.29419C3.90245 8.34185 3.86077 8.3996 3.83188 8.4639C3.803 8.5282 3.78751 8.5977 3.78638 8.66818C3.78786 8.73937 3.8043 8.80945 3.83462 8.87389C3.86494 8.93832 3.90847 8.99567 3.96238 9.04219C4.00929 9.09899 4.06817 9.14471 4.13481 9.1761C4.20146 9.20749 4.27421 9.22377 4.34788 9.22377C4.42154 9.22377 4.4943 9.20749 4.56094 9.1761C4.62758 9.14471 4.68647 9.09899 4.73338 9.04219L6.50438 7.27118ZM6.50438 13.0002C5.63583 13.0072 4.77497 12.837 3.97438 12.5002C2.41307 11.8446 1.17091 10.6031 0.514377 9.04219C0.00992846 7.84938 -0.127453 6.53325 0.119784 5.26198C0.367021 3.9907 0.98765 2.82199 1.90238 1.90518C2.49725 1.31527 3.19865 0.843591 3.96938 0.515182C4.76885 0.170784 5.6309 -0.00455427 6.50138 0.000182404C7.37703 -0.00643669 8.24468 0.167156 9.05038 0.510177C10.6069 1.16549 11.8457 2.40321 12.5024 3.95918C12.8394 4.76377 13.0129 5.62737 13.0129 6.49968C13.0129 7.37199 12.8394 8.23559 12.5024 9.04018C12.174 9.81121 11.7023 10.513 11.1124 11.1082C10.5095 11.7129 9.79228 12.1917 9.00254 12.5165C8.21279 12.8413 7.3663 13.0058 6.51238 13.0002H6.50438Z" fill="#D63F3F"/>
</svg>
