<?xml version="1.0" encoding="UTF-8"?>
<!DOCTYPE svg PUBLIC "-//W3C//DTD SVG 1.1//EN" "http://www.w3.org/Graphics/SVG/1.1/DTD/svg11.dtd">
<!-- Creator: CorelDRAW -->
<svg xmlns="http://www.w3.org/2000/svg" xml:space="preserve" width="14.0998in" height="7.1105in" version="1.1" shape-rendering="geometricPrecision" text-rendering="geometricPrecision" image-rendering="optimizeQuality" fill-rule="evenodd" clip-rule="evenodd"
viewBox="0 0 1471.82 742.23"
 xmlns:xlink="http://www.w3.org/1999/xlink"
 xmlns:xodm="http://www.corel.com/coreldraw/odm/2003">
 <g id="Layer_x0020_1">
  <metadata id="CorelCorpID_0Corel-Layer"/>
  <g id="_105553212934688">
   <path fill="#025C7F" fill-rule="nonzero" d="M402.76 241.13c14.6,0 27.28,-3.03 37.75,-8.82 10.47,-5.79 19.01,-14.33 25.9,-25.62l-25.9 -10.19c-3.86,6.89 -8.82,11.85 -14.88,15.15 -6.06,3.31 -13.22,4.96 -21.49,4.96 -7.71,0 -14.33,-1.65 -19.56,-4.96 -5.23,-3.31 -9.37,-8.27 -12.12,-14.6 -3.03,-6.34 -4.41,-14.05 -4.13,-23.14 0,-9.09 1.38,-16.81 4.41,-23.14 2.76,-6.34 6.89,-11.02 12.12,-14.33 5.23,-3.31 11.57,-4.96 19.01,-4.96 6.34,0 11.85,1.38 16.53,4.13 4.68,2.76 8.27,6.61 11.02,11.57 2.48,4.96 3.86,10.75 3.86,17.63 0,1.38 -0.28,2.76 -0.83,4.68 -0.83,1.93 -1.38,3.31 -1.93,4.41l9.09 -12.67 -85.69 0 0 20.66 111.31 0c0,-0.83 0,-1.93 0.28,-3.58 0,-1.65 0,-3.31 0,-4.68 0,-13.5 -2.48,-25.35 -7.44,-34.99 -4.96,-9.64 -12.12,-16.81 -21.49,-22.04 -9.64,-5.23 -20.94,-7.71 -34.44,-7.71 -13.5,0 -25.07,2.76 -34.99,7.99 -9.92,5.51 -17.63,13.23 -22.87,23.14 -5.51,9.92 -8.27,21.49 -8.27,34.99 0,13.23 2.76,24.8 7.99,34.72 5.23,9.92 12.95,17.63 22.87,23.14 9.64,5.51 20.94,8.27 33.89,8.27z"/>
   <path fill="#025C7F" fill-rule="nonzero" d="M677.74 157.64c0,-10.29 -1.52,-19.1 -4.55,-26.45 -3.03,-7.35 -7.49,-12.9 -13.36,-16.67 -5.88,-3.77 -13.41,-5.65 -22.59,-5.65 -8.45,0 -16.03,1.88 -22.73,5.65 -6.7,3.77 -12.35,9.41 -16.95,16.94 -2.76,-7.35 -7.21,-12.95 -13.36,-16.81 -6.15,-3.86 -13.82,-5.79 -23.01,-5.79 -8.27,0 -15.34,1.79 -21.22,5.37 -5.88,3.58 -10.75,8.86 -14.6,15.84l0 -18.46 -29.21 0 0 126.74 29.21 0 0 -77.15c0,-6.06 1.06,-11.2 3.17,-15.43 2.11,-4.22 5.05,-7.44 8.82,-9.64 3.77,-2.2 8.13,-3.31 13.09,-3.31 7.35,0 12.72,2.34 16.12,7.03 3.4,4.68 5.1,11.8 5.1,21.35l0 77.15 29.76 0 0 -77.15c0,-6.06 1.06,-11.2 3.17,-15.43 2.11,-4.22 5.05,-7.44 8.82,-9.64 3.77,-2.2 8.22,-3.31 13.36,-3.31 7.16,0 12.44,2.34 15.84,7.03 3.4,4.68 5.1,11.8 5.1,21.35l0 77.15 30.03 0 0 -80.73z"/>
   <path fill="#025C7F" fill-rule="nonzero" d="M770.59 241.13c14.6,0 27.28,-3.03 37.75,-8.82 10.47,-5.79 19.01,-14.33 25.9,-25.62l-25.9 -10.19c-3.86,6.89 -8.82,11.85 -14.88,15.15 -6.06,3.31 -13.22,4.96 -21.49,4.96 -7.71,0 -14.33,-1.65 -19.56,-4.96 -5.23,-3.31 -9.37,-8.27 -12.12,-14.6 -3.03,-6.34 -4.41,-14.05 -4.13,-23.14 0,-9.09 1.38,-16.81 4.41,-23.14 2.76,-6.34 6.89,-11.02 12.12,-14.33 5.23,-3.31 11.57,-4.96 19.01,-4.96 6.34,0 11.85,1.38 16.53,4.13 4.68,2.76 8.27,6.61 11.02,11.57 2.48,4.96 3.86,10.75 3.86,17.63 0,1.38 -0.28,2.76 -0.83,4.68 -0.83,1.93 -1.38,3.31 -1.93,4.41l9.09 -12.67 -85.69 0 0 20.66 111.31 0c0,-0.83 0,-1.93 0.28,-3.58 0,-1.65 0,-3.31 0,-4.68 0,-13.5 -2.48,-25.35 -7.44,-34.99 -4.96,-9.64 -12.12,-16.81 -21.49,-22.04 -9.64,-5.23 -20.94,-7.71 -34.44,-7.71 -13.5,0 -25.07,2.76 -34.99,7.99 -9.92,5.51 -17.63,13.23 -22.87,23.14 -5.51,9.92 -8.27,21.49 -8.27,34.99 0,13.23 2.76,24.8 7.99,34.72 5.23,9.92 12.95,17.63 22.87,23.14 9.64,5.51 20.94,8.27 33.89,8.27z"/>
   <path fill="#025C7F" fill-rule="nonzero" d="M893.48 111.63l-29.48 0 0 126.74 29.48 0 0 -126.74zm37.75 31.69l14.6 -25.07c-3.03,-3.58 -6.34,-6.06 -10.47,-7.44 -4.13,-1.38 -8.27,-2.2 -12.95,-2.2 -6.34,0 -12.67,2.2 -18.46,6.89 -6.06,4.68 -11.02,11.02 -14.6,18.74 -3.86,7.99 -5.79,16.81 -5.79,27l9.92 5.79c0,-6.06 0.83,-11.3 2.2,-15.98 1.38,-4.41 3.58,-7.99 6.61,-10.47 3.03,-2.48 7.16,-3.86 12.12,-3.86 3.58,0 6.89,0.55 9.37,1.65 2.48,1.1 4.96,2.76 7.44,4.96z"/>
   <path fill="#025C7F" fill-rule="nonzero" d="M954.93 246.92c0.28,11.02 3.31,20.66 8.54,29.21 5.23,8.54 12.95,15.15 22.59,19.84 9.64,4.68 21.49,6.89 34.99,6.89 11.57,0 22.32,-2.48 32.24,-7.16 9.92,-4.96 17.91,-12.4 24.25,-22.32 6.06,-9.92 9.09,-22.59 9.09,-37.75l0 -123.99 -29.21 0 0 123.99c0,9.64 -1.65,17.36 -5.23,23.42 -3.58,6.06 -8.27,10.47 -14.05,13.5 -5.79,3.03 -11.57,4.41 -17.63,4.41 -7.16,0 -13.5,-1.38 -18.74,-3.86 -5.24,-2.76 -9.37,-6.34 -12.4,-10.75 -3.03,-4.68 -4.41,-9.64 -4.68,-15.43l-29.76 0zm-2.48 -72.74c0,14.05 2.76,25.9 8.54,35.54 5.79,9.64 13.23,17.08 22.87,22.32 9.37,5.23 19.56,7.71 30.31,7.71 10.75,0 20.11,-2.76 28.1,-7.99 7.99,-5.23 14.33,-12.67 19.01,-22.59 4.68,-9.64 6.89,-21.49 6.89,-34.99 0,-13.78 -2.2,-25.62 -6.89,-35.27 -4.68,-9.64 -11.02,-17.08 -19.01,-22.32 -7.99,-5.23 -17.36,-7.71 -28.1,-7.71 -10.75,0 -20.94,2.48 -30.31,7.71 -9.64,5.23 -17.08,12.4 -22.87,22.04 -5.79,9.64 -8.54,21.49 -8.54,35.54zm30.86 0c0,-8.54 1.65,-15.71 5.23,-21.49 3.58,-5.79 8.27,-10.47 14.05,-13.5 5.79,-3.03 11.85,-4.41 18.74,-4.41 4.41,0 8.82,0.83 12.95,2.48 4.13,1.65 7.99,4.13 11.57,7.44 3.58,3.58 6.34,7.71 8.54,12.4 1.93,4.96 3.03,10.75 3.03,17.08 0,8.54 -1.65,15.98 -5.23,21.77 -3.58,5.79 -8.27,10.19 -13.78,13.22 -5.51,3.03 -11.3,4.68 -17.08,4.68 -6.89,0 -12.95,-1.65 -18.74,-4.68 -5.79,-3.03 -10.47,-7.44 -14.05,-13.5 -3.58,-5.79 -5.23,-12.95 -5.23,-21.49z"/>
   <path fill="#025C7F" fill-rule="nonzero" d="M1129.33 60.3c0,4.96 1.93,9.09 5.79,12.67 3.58,3.58 7.99,5.51 12.95,5.51 5.23,0 9.92,-1.93 13.5,-5.51 3.58,-3.58 5.51,-7.71 5.51,-12.67 0,-5.24 -1.93,-9.37 -5.51,-12.95 -3.58,-3.58 -8.27,-5.23 -13.5,-5.23 -4.96,0 -9.37,1.65 -12.95,5.23 -3.86,3.58 -5.79,7.71 -5.79,12.95zm4.13 50.42l0 126.74 29.48 0 0 -126.74 -29.48 0z"/>
   <path fill="#025C7F" fill-rule="nonzero" d="M1278.67 161.23l0 77.15 30.58 0 0 -80.73c0,-15.15 -3.86,-27 -11.3,-35.82 -7.44,-8.54 -18.46,-12.95 -32.79,-12.95 -8.54,0 -15.98,1.93 -22.32,5.51 -6.34,3.58 -11.57,9.37 -15.7,16.81l0 -19.56 -30.03 0 0 126.74 30.03 0 0 -77.15c0,-5.79 1.1,-10.75 3.58,-15.15 2.2,-4.13 5.51,-7.44 9.64,-9.92 4.13,-2.2 9.09,-3.31 14.88,-3.31 7.99,0 13.78,2.48 17.63,7.16 3.86,4.68 5.79,11.85 5.79,21.22z"/>
   <path fill="#025C7F" fill-rule="nonzero" d="M1340.12 246.92c0.28,11.02 3.31,20.66 8.54,29.21 5.23,8.54 12.95,15.15 22.59,19.84 9.64,4.68 21.49,6.89 34.99,6.89 11.57,0 22.32,-2.48 32.24,-7.16 9.92,-4.96 17.91,-12.4 24.25,-22.32 6.06,-9.92 9.09,-22.59 9.09,-37.75l0 -123.99 -29.21 0 0 123.99c0,9.64 -1.65,17.36 -5.23,23.42 -3.58,6.06 -8.27,10.47 -14.05,13.5 -5.79,3.03 -11.57,4.41 -17.63,4.41 -7.16,0 -13.5,-1.38 -18.74,-3.86 -5.24,-2.76 -9.37,-6.34 -12.4,-10.75 -3.03,-4.68 -4.41,-9.64 -4.68,-15.43l-29.76 0zm-2.48 -72.74c0,14.05 2.76,25.9 8.54,35.54 5.79,9.64 13.23,17.08 22.87,22.32 9.37,5.23 19.56,7.71 30.31,7.71 10.75,0 20.11,-2.76 28.1,-7.99 7.99,-5.23 14.33,-12.67 19.01,-22.59 4.68,-9.64 6.89,-21.49 6.89,-34.99 0,-13.78 -2.2,-25.62 -6.89,-35.27 -4.68,-9.64 -11.02,-17.08 -19.01,-22.32 -7.99,-5.23 -17.36,-7.71 -28.1,-7.71 -10.75,0 -20.94,2.48 -30.31,7.71 -9.64,5.23 -17.08,12.4 -22.87,22.04 -5.79,9.64 -8.54,21.49 -8.54,35.54zm30.86 0c0,-8.54 1.65,-15.71 5.23,-21.49 3.58,-5.79 8.27,-10.47 14.05,-13.5 5.79,-3.03 11.85,-4.41 18.74,-4.41 4.41,0 8.82,0.83 12.95,2.48 4.13,1.65 7.99,4.13 11.57,7.44 3.58,3.58 6.34,7.71 8.54,12.4 1.93,4.96 3.03,10.75 3.03,17.08 0,8.54 -1.65,15.98 -5.23,21.77 -3.58,5.79 -8.27,10.19 -13.78,13.22 -5.51,3.03 -11.3,4.68 -17.08,4.68 -6.89,0 -12.95,-1.65 -18.74,-4.68 -5.79,-3.03 -10.47,-7.44 -14.05,-13.5 -3.58,-5.79 -5.23,-12.95 -5.23,-21.49z"/>
   <path fill="#E0C759" fill-rule="nonzero" d="M534.67 380.36c0,-7.99 1.65,-14.88 5.23,-20.94 3.58,-6.06 8.27,-10.75 14.33,-14.33 5.79,-3.58 12.4,-5.23 19.84,-5.23 5.79,0 11.57,0.83 17.08,2.76 5.51,1.93 10.47,4.41 14.88,7.44 4.13,3.31 7.44,7.16 9.37,11.3l0 -33.06c-4.41,-4.13 -10.47,-7.71 -17.91,-10.19 -7.44,-2.48 -15.71,-3.86 -24.8,-3.86 -12.95,0 -24.52,2.76 -34.72,8.27 -10.47,5.79 -18.74,13.5 -24.8,23.42 -6.06,9.92 -9.09,21.49 -9.09,34.44 0,12.95 3.03,24.25 9.09,34.16 6.06,10.19 14.33,17.91 24.8,23.42 10.19,5.79 21.77,8.54 34.72,8.54 9.09,0 17.36,-1.38 24.8,-3.86 7.44,-2.48 13.5,-6.06 17.91,-10.47l0 -32.79c-1.93,4.13 -5.24,7.71 -9.37,10.75 -4.13,3.31 -9.09,5.79 -14.33,7.71 -5.51,1.93 -11.3,3.03 -17.63,3.03 -7.44,0 -14.05,-1.65 -19.84,-5.23 -6.06,-3.58 -10.75,-8.27 -14.33,-14.33 -3.58,-6.06 -5.23,-12.95 -5.23,-20.94z"/>
   <polygon fill="#E0C759" fill-rule="nonzero" points="647.71,271.62 647.71,443.73 677.74,443.73 677.74,271.62 "/>
   <path fill="#E0C759" fill-rule="nonzero" d="M714.87 284.86c0,4.96 1.88,9.23 5.65,12.81 3.77,3.58 8.13,5.37 13.09,5.37 5.33,0 9.83,-1.79 13.5,-5.37 3.67,-3.58 5.51,-7.85 5.51,-12.81 0,-5.14 -1.84,-9.46 -5.51,-12.95 -3.67,-3.49 -8.17,-5.24 -13.5,-5.24 -4.96,0 -9.32,1.74 -13.09,5.24 -3.77,3.49 -5.65,7.81 -5.65,12.95zm4.13 32.12l0 126.74 29.48 0 0 -126.74 -29.48 0z"/>
   <path fill="#E0C759" fill-rule="nonzero" d="M971.11 363c0,-10.29 -1.52,-19.1 -4.55,-26.45 -3.03,-7.35 -7.49,-12.9 -13.36,-16.67 -5.88,-3.77 -13.41,-5.65 -22.59,-5.65 -8.45,0 -16.03,1.88 -22.73,5.65 -6.7,3.77 -12.35,9.41 -16.94,16.94 -2.76,-7.35 -7.21,-12.95 -13.36,-16.81 -6.15,-3.86 -13.82,-5.79 -23.01,-5.79 -8.27,0 -15.34,1.79 -21.22,5.37 -5.88,3.58 -10.75,8.86 -14.6,15.84l0 -18.46 -29.21 0 0 126.74 29.21 0 0 -77.15c0,-6.06 1.06,-11.2 3.17,-15.43 2.11,-4.22 5.05,-7.44 8.82,-9.64 3.77,-2.2 8.13,-3.31 13.09,-3.31 7.35,0 12.72,2.34 16.12,7.03 3.4,4.68 5.1,11.8 5.1,21.35l0 77.15 29.76 0 0 -77.15c0,-6.06 1.06,-11.2 3.17,-15.43 2.11,-4.22 5.05,-7.44 8.82,-9.64 3.77,-2.2 8.22,-3.31 13.36,-3.31 7.16,0 12.44,2.34 15.84,7.03 3.4,4.68 5.1,11.8 5.1,21.35l0 77.15 30.03 0 0 -80.73z"/>
   <path fill="#E0C759" fill-rule="nonzero" d="M1027.6 404.33c0,-4.13 1.1,-7.44 3.03,-10.19 1.93,-2.76 4.68,-4.96 8.54,-6.61 3.86,-1.38 8.82,-2.2 15.15,-2.2 7.16,0 14.05,0.83 20.39,2.76 6.34,1.93 12.4,4.68 18.18,8.82l0 -15.15c-1.65,-1.93 -4.41,-4.41 -8.54,-6.89 -4.13,-2.48 -9.09,-4.41 -15.15,-6.34 -6.34,-1.93 -13.5,-2.76 -22.04,-2.76 -15.7,0 -28.1,3.58 -36.64,10.75 -8.54,7.44 -12.95,17.08 -12.95,29.48 0,8.54 1.93,15.98 6.06,22.04 4.13,6.06 9.37,10.75 16.26,13.78 6.89,3.03 14.05,4.68 22.04,4.68 7.44,0 14.6,-1.38 21.77,-4.13 6.89,-2.48 12.95,-6.61 17.63,-12.12 4.68,-5.51 6.89,-12.4 6.89,-20.39l-4.41 -16.53c0,6.34 -1.38,11.85 -4.41,16.53 -3.03,4.68 -6.89,7.99 -11.57,10.47 -4.96,2.48 -10.47,3.86 -16.53,3.86 -4.68,0 -8.54,-0.83 -12.12,-2.2 -3.58,-1.38 -6.61,-3.86 -8.54,-6.89 -1.93,-3.03 -3.03,-6.61 -3.03,-10.75zm-9.37 -54.28c1.93,-1.38 4.96,-3.03 8.54,-4.96 3.58,-1.93 8.27,-3.58 13.5,-4.96 5.23,-1.38 10.75,-1.93 16.53,-1.93 3.86,0 7.44,0.28 10.75,1.1 3.31,0.83 6.34,1.93 8.82,3.58 2.48,1.65 4.13,3.86 5.51,6.34 1.38,2.48 1.93,5.79 1.93,9.92l0 84.59 29.21 0 0 -90.37c0,-8.54 -2.2,-15.71 -6.61,-21.49 -4.68,-5.79 -11.02,-10.47 -19.01,-13.5 -7.99,-3.03 -17.36,-4.41 -27.55,-4.41 -11.85,0 -22.32,1.65 -31.41,4.96 -9.09,3.31 -16.53,6.61 -22.32,10.19l12.12 20.94z"/>
   <path fill="#E0C759" fill-rule="nonzero" d="M1130.1 316.99l0 26.17 71.91 0 0 -26.17 -71.91 0zm21.49 -44.08l0 170.83 29.21 0 0 -170.83 -29.21 0z"/>
   <path fill="#E0C759" fill-rule="nonzero" d="M1277.5 446.48c14.6,0 27.28,-3.03 37.75,-8.82 10.47,-5.79 19.01,-14.33 25.9,-25.62l-25.9 -10.19c-3.86,6.89 -8.82,11.85 -14.88,15.15 -6.06,3.31 -13.22,4.96 -21.49,4.96 -7.71,0 -14.33,-1.65 -19.56,-4.96 -5.23,-3.31 -9.37,-8.27 -12.12,-14.6 -3.03,-6.34 -4.41,-14.05 -4.13,-23.14 0,-9.09 1.38,-16.81 4.41,-23.14 2.76,-6.34 6.89,-11.02 12.12,-14.33 5.23,-3.31 11.57,-4.96 19.01,-4.96 6.34,0 11.85,1.38 16.53,4.13 4.68,2.76 8.27,6.61 11.02,11.57 2.48,4.96 3.86,10.75 3.86,17.63 0,1.38 -0.28,2.76 -0.83,4.68 -0.83,1.93 -1.38,3.31 -1.93,4.41l9.09 -12.67 -85.69 0 0 20.66 111.31 0c0,-0.83 0,-1.93 0.28,-3.58 0,-1.65 0,-3.31 0,-4.68 0,-13.5 -2.48,-25.35 -7.44,-34.99 -4.96,-9.64 -12.12,-16.81 -21.49,-22.04 -9.64,-5.23 -20.94,-7.71 -34.44,-7.71 -13.5,0 -25.07,2.76 -34.99,7.99 -9.92,5.51 -17.63,13.23 -22.87,23.14 -5.51,9.92 -8.27,21.49 -8.27,34.99 0,13.23 2.76,24.8 7.99,34.72 5.23,9.92 12.95,17.63 22.87,23.14 9.64,5.51 20.94,8.27 33.89,8.27z"/>
   <path fill="#025C7F" fill-rule="nonzero" d="M405.83 543.76l0 26.17 72.74 0 0 -26.17 -72.74 0zm69.71 -56.21l13.78 -23.14c-1.38,-1.93 -3.58,-3.86 -6.06,-5.79 -2.48,-1.93 -5.79,-3.31 -9.37,-4.68 -3.58,-1.38 -7.99,-1.93 -12.95,-1.93 -9.09,0 -16.53,1.65 -22.59,5.23 -6.06,3.58 -10.75,8.54 -13.78,14.88 -3.31,6.61 -4.96,14.88 -4.96,24.8l0 173.58 29.48 0 0 -167.79c0,-5.23 0.55,-9.64 1.65,-12.95 1.1,-3.31 2.76,-5.79 4.68,-7.16 1.93,-1.38 4.13,-2.2 6.89,-2.2 2.2,0 4.41,0.55 6.89,1.38 2.48,0.83 4.41,2.76 6.34,5.79z"/>
   <path fill="#025C7F" fill-rule="nonzero" d="M530.92 543.76l-29.48 0 0 126.74 29.48 0 0 -126.74zm37.75 31.69l14.6 -25.07c-3.03,-3.58 -6.34,-6.06 -10.47,-7.44 -4.13,-1.38 -8.27,-2.2 -12.95,-2.2 -6.34,0 -12.67,2.2 -18.46,6.89 -6.06,4.68 -11.02,11.02 -14.6,18.74 -3.86,7.99 -5.79,16.81 -5.79,27l9.92 5.79c0,-6.06 0.83,-11.3 2.2,-15.98 1.38,-4.41 3.58,-7.99 6.61,-10.47 3.03,-2.48 7.16,-3.86 12.12,-3.86 3.58,0 6.89,0.55 9.37,1.65 2.48,1.1 4.96,2.76 7.44,4.96z"/>
   <path fill="#025C7F" fill-rule="nonzero" d="M589.88 607.13c0,12.95 3.03,24.25 9.09,34.16 5.79,10.19 14.05,17.91 24.52,23.42 10.19,5.79 21.77,8.54 34.72,8.54 12.95,0 24.8,-2.76 34.99,-8.54 10.19,-5.51 18.46,-13.23 24.52,-23.42 5.79,-9.92 8.82,-21.22 8.82,-34.16 0,-12.95 -3.03,-24.52 -8.82,-34.44 -6.06,-9.92 -14.33,-17.63 -24.52,-23.42 -10.19,-5.51 -22.04,-8.27 -34.99,-8.27 -12.95,0 -24.52,2.76 -34.72,8.27 -10.47,5.79 -18.74,13.5 -24.52,23.42 -6.06,9.92 -9.09,21.49 -9.09,34.44zm30.58 0c0,-7.99 1.65,-14.88 4.96,-20.94 3.31,-6.06 7.71,-10.75 13.5,-14.05 5.79,-3.31 12.12,-4.96 19.29,-4.96 7.16,0 13.5,1.65 19.29,4.96 5.79,3.31 10.19,7.99 13.5,14.05 3.31,6.06 4.96,12.95 4.96,20.94 0,7.99 -1.65,14.88 -4.96,20.66 -3.31,6.06 -7.71,10.75 -13.5,14.05 -5.79,3.58 -12.12,5.23 -19.29,5.23 -7.16,0 -13.5,-1.65 -19.29,-5.23 -5.79,-3.31 -10.19,-7.99 -13.5,-14.05 -3.31,-5.79 -4.96,-12.67 -4.96,-20.66z"/>
   <path fill="#025C7F" fill-rule="nonzero" d="M836.48 593.35l0 77.15 30.58 0 0 -80.73c0,-15.15 -3.86,-27 -11.3,-35.82 -7.44,-8.54 -18.46,-12.95 -32.79,-12.95 -8.54,0 -15.98,1.93 -22.32,5.51 -6.34,3.58 -11.57,9.37 -15.7,16.81l0 -19.56 -30.03 0 0 126.74 30.03 0 0 -77.15c0,-5.79 1.1,-10.75 3.58,-15.15 2.2,-4.13 5.51,-7.44 9.64,-9.92 4.13,-2.2 9.09,-3.31 14.88,-3.31 7.99,0 13.78,2.48 17.63,7.16 3.86,4.68 5.79,11.85 5.79,21.22z"/>
   <path fill="#025C7F" fill-rule="nonzero" d="M887.46 543.76l0 26.18 71.91 0 0 -26.18 -71.91 0zm21.49 -48.74l0 175.49 30.07 0 0 -175.49 -30.07 0z"/>
   <path fill="#025C7F" fill-rule="nonzero" d="M978.66 493.34c0,4.96 1.93,9.09 5.79,12.67 3.58,3.58 7.99,5.51 12.95,5.51 5.23,0 9.92,-1.93 13.5,-5.51 3.58,-3.58 5.51,-7.71 5.51,-12.67 0,-5.24 -1.93,-9.37 -5.51,-12.95 -3.58,-3.58 -8.27,-5.23 -13.5,-5.23 -4.96,0 -9.37,1.65 -12.95,5.23 -3.86,3.58 -5.79,7.71 -5.79,12.95zm4.13 50.42l0 126.74 29.48 0 0 -126.74 -29.48 0z"/>
   <path fill="#025C7F" fill-rule="nonzero" d="M1108.43 673.25c14.6,0 27.28,-3.03 37.75,-8.82 10.47,-5.79 19.01,-14.33 25.9,-25.62l-25.9 -10.19c-3.86,6.89 -8.82,11.85 -14.88,15.15 -6.06,3.31 -13.22,4.96 -21.49,4.96 -7.71,0 -14.33,-1.65 -19.56,-4.96 -5.23,-3.31 -9.37,-8.27 -12.12,-14.6 -3.03,-6.34 -4.41,-14.05 -4.13,-23.14 0,-9.09 1.38,-16.81 4.41,-23.14 2.76,-6.34 6.89,-11.02 12.12,-14.33 5.23,-3.31 11.57,-4.96 19.01,-4.96 6.34,0 11.85,1.38 16.53,4.13 4.68,2.76 8.27,6.61 11.02,11.57 2.48,4.96 3.86,10.75 3.86,17.63 0,1.38 -0.28,2.76 -0.83,4.68 -0.83,1.93 -1.38,3.31 -1.93,4.41l9.09 -12.67 -85.69 0 0 20.66 111.31 0c0,-0.83 0,-1.93 0.28,-3.58 0,-1.65 0,-3.31 0,-4.68 0,-13.5 -2.48,-25.35 -7.44,-34.99 -4.96,-9.64 -12.12,-16.81 -21.49,-22.04 -9.64,-5.23 -20.94,-7.71 -34.44,-7.71 -13.5,0 -25.07,2.76 -34.99,7.99 -9.92,5.51 -17.63,13.23 -22.87,23.14 -5.51,9.92 -8.27,21.49 -8.27,34.99 0,13.23 2.76,24.8 7.99,34.72 5.23,9.92 12.95,17.63 22.87,23.14 9.64,5.51 20.94,8.27 33.89,8.27z"/>
   <path fill="#025C7F" fill-rule="nonzero" d="M1231.32 543.76l-29.48 0 0 126.74 29.48 0 0 -126.74zm37.75 31.69l14.6 -25.07c-3.03,-3.58 -6.34,-6.06 -10.47,-7.44 -4.13,-1.38 -8.27,-2.2 -12.95,-2.2 -6.34,0 -12.67,2.2 -18.46,6.89 -6.06,4.68 -11.02,11.02 -14.6,18.74 -3.86,7.99 -5.79,16.81 -5.79,27l9.92 5.79c0,-6.06 0.83,-11.3 2.2,-15.98 1.38,-4.41 3.58,-7.99 6.61,-10.47 3.03,-2.48 7.16,-3.86 12.12,-3.86 3.58,0 6.89,0.55 9.37,1.65 2.48,1.1 4.96,2.76 7.44,4.96z"/>
   <path fill="#025C7F" fill-rule="nonzero" d="M1309.84 628.62l-17.36 17.63c3.58,4.68 8.27,9.37 13.78,13.5 5.51,4.41 11.85,7.99 19.01,10.47 7.16,2.76 15.15,4.13 23.97,4.13 13.78,0 24.8,-3.58 33.06,-11.02 7.99,-7.16 12.12,-16.81 12.12,-28.65 0,-7.71 -1.65,-14.05 -5.23,-18.74 -3.58,-4.68 -8.27,-8.82 -14.05,-12.12 -5.79,-3.31 -12.4,-6.34 -19.56,-9.09 -5.23,-1.93 -9.64,-3.86 -13.78,-5.79 -4.13,-1.93 -7.44,-3.86 -9.92,-6.34 -2.48,-2.2 -3.86,-4.68 -3.86,-7.71 0,-3.58 1.38,-6.06 4.13,-7.99 2.76,-1.93 6.34,-2.76 10.75,-2.76 6.34,0 12.4,1.65 18.18,4.68 5.79,3.03 10.75,7.16 14.88,12.12l16.53 -17.63c-3.58,-4.13 -7.71,-7.99 -12.67,-11.3 -4.96,-3.31 -10.47,-6.06 -16.53,-7.99 -6.34,-1.93 -12.95,-3.03 -19.84,-3.03 -7.71,0 -14.88,1.1 -21.49,3.58 -6.89,2.48 -12.12,6.34 -15.98,11.57 -4.13,5.23 -6.06,11.57 -6.06,19.29 0,7.44 1.93,13.78 5.51,18.74 3.58,4.96 7.99,8.82 13.78,11.85 5.51,3.03 11.02,5.79 16.81,7.99 5.79,1.93 10.75,3.86 14.88,5.79 4.13,1.93 7.44,4.41 9.92,6.89 2.48,2.76 3.58,6.06 3.58,9.64 0,4.13 -1.38,7.44 -4.41,9.92 -3.03,2.48 -7.44,3.58 -12.67,3.58 -4.13,0 -8.54,-0.83 -12.67,-2.48 -4.13,-1.65 -8.27,-4.13 -12.4,-7.16 -4.13,-3.03 -8.27,-6.89 -12.4,-11.57z"/>
   <circle fill="#E0C759" cx="378.15" cy="360.03" r="80.3"/>
   <circle fill="#E0C759" cx="344.29" cy="557.59" r="20.99"/>
   <circle fill="#E0C759" cx="274.87" cy="525.48" r="34.8"/>
   <circle fill="#E0C759" cx="215.18" cy="454.7" r="34.8"/>
   <circle fill="#E0C759" cx="196.12" cy="360.03" r="34.8"/>
   <circle fill="#E0C759" cx="217.83" cy="269.49" r="34.8"/>
   <circle fill="#E0C759" cx="280.56" cy="195.53" r="34.8"/>
   <circle fill="#E0C759" cx="354.72" cy="722.1" r="20.14"/>
   <circle fill="#E0C759" cx="122.89" cy="607.33" r="20.14"/>
   <circle fill="#E0C759" cx="20.14" cy="360.73" r="20.14"/>
   <circle fill="#E0C759" cx="122.89" cy="113.1" r="20.14"/>
   <circle fill="#E0C759" cx="340.21" cy="20.14" r="20.14"/>
   <circle fill="#E0C759" cx="56.22" cy="226.27" r="13.9"/>
   <circle fill="#E0C759" cx="214.98" cy="47.02" r="13.9"/>
   <circle fill="#E0C759" cx="60.76" cy="497.74" r="13.9"/>
   <circle fill="#E0C759" cx="235.75" cy="683.59" r="13.9"/>
   <path fill="#E0C759" d="M77.87 374.24l0 -28.41c0,-7.5 6.28,-15.11 13.63,-13.63l28.06 5.65c7.35,1.48 13.63,6.13 13.63,13.63l0 17.45c0,7.49 -6.26,12.24 -13.63,13.63l-28.06 5.31c-7.37,1.39 -13.63,-6.13 -13.63,-13.63z"/>
   <circle fill="#E0C759" cx="307.75" cy="88.7" r="15.1"/>
   <path fill="#E0C759" d="M100.32 473.4l-8.4 -27.14c-2.22,-7.16 1.53,-16.29 8.99,-17.05l28.48 -2.9c7.46,-0.76 14.83,1.83 17.05,8.99l5.16 16.67c2.22,7.16 -2.37,13.54 -8.99,17.05l-25.24 13.37c-6.62,3.51 -14.83,-1.83 -17.05,-8.99z"/>
   <path fill="#E0C759" d="M149.18 559.09l-15.83 -23.59c-4.18,-6.22 -3.21,-16.05 3.72,-18.91l26.45 -10.95c6.93,-2.87 14.73,-2.5 18.91,3.72l9.73 14.49c4.18,6.22 1.62,13.65 -3.72,18.91l-20.34 20.05c-5.34,5.26 -14.73,2.5 -18.91,-3.72z"/>
   <path fill="#E0C759" d="M218.22 625.46l-21.78 -18.24c-5.75,-4.81 -7.55,-14.52 -1.7,-19.2l22.35 -17.89c5.85,-4.68 13.45,-6.51 19.2,-1.7l13.38 11.2c5.75,4.81 5.36,12.66 1.7,19.2l-13.94 24.93c-3.66,6.54 -13.45,6.51 -19.2,1.7z"/>
   <path fill="#E0C759" d="M316.59 674.46l-26.46 -10.34c-6.98,-2.73 -11.79,-11.35 -7.74,-17.65l15.47 -24.08c4.05,-6.31 10.67,-10.46 17.65,-7.74l16.25 6.35c6.98,2.73 9.12,10.29 7.74,17.65l-5.26 28.07c-1.38,7.37 -10.67,10.46 -17.65,7.74z"/>
   <path fill="#E0C759" d="M198.46 100.3l22.48 -17.37c5.93,-4.58 15.8,-4.26 19.12,2.46l12.68 25.66c3.32,6.72 3.48,14.54 -2.46,19.12l-13.81 10.67c-5.93,4.58 -13.51,2.52 -19.12,-2.46l-21.36 -18.96c-5.61,-4.98 -3.48,-14.54 2.46,-19.12z"/>
   <path fill="#E0C759" d="M90.33 267.84l8.85 -27c2.34,-7.12 10.68,-12.4 17.2,-8.7l24.9 14.11c6.52,3.7 11.04,10.07 8.7,17.2l-5.44 16.58c-2.34,7.12 -9.76,9.67 -17.2,8.7l-28.32 -3.7c-7.43,-0.97 -11.04,-10.07 -8.7,-17.2z"/>
   <path fill="#E0C759" d="M131.87 175.87l16.4 -23.2c4.33,-6.12 13.85,-8.71 19,-3.26l19.65 20.81c5.15,5.45 7.59,12.88 3.26,19l-10.07 14.25c-4.33,6.12 -12.18,6.38 -19,3.26l-25.98 -11.86c-6.82,-3.11 -7.59,-12.88 -3.26,-19z"/>
  </g>
 </g>
</svg>
