<svg width="60" height="60" viewBox="0 0 60 60" fill="none" xmlns="http://www.w3.org/2000/svg">
<path d="M20.9302 35.7902V24.2098C20.9302 23.2804 21.2447 22.5018 21.8735 21.8735C22.5018 21.2447 23.2804 20.9302 24.2098 20.9302H35.7902C36.7196 20.9302 37.4982 21.2447 38.1264 21.8735C38.7553 22.5018 39.0698 23.2804 39.0698 24.2098V35.7902C39.0698 36.7196 38.7553 37.4982 38.1264 38.1264C37.4982 38.7553 36.7196 39.0698 35.7902 39.0698H24.2098C23.2804 39.0698 22.5018 38.7553 21.8735 38.1264C21.2447 37.4982 20.9302 36.7196 20.9302 35.7902ZM20.0233 57.2791V53.5813H12.977C11.1443 53.5813 9.59307 52.9464 8.32331 51.6767C7.05353 50.4069 6.41867 48.8558 6.41867 47.0231V39.9767H2.72093C1.95 39.9767 1.30393 39.7158 0.78272 39.194C0.260907 38.6722 0 38.0258 0 37.2549C0 36.4833 0.260907 35.8373 0.78272 35.3167C1.30393 34.7956 1.95 34.5349 2.72093 34.5349H6.41867V25.4651H2.72093C1.95 25.4651 1.30393 25.2042 0.78272 24.6824C0.260907 24.1607 0 23.5142 0 22.7433C0 21.9718 0.260907 21.3257 0.78272 20.8051C1.30393 20.2839 1.95 20.0233 2.72093 20.0233H6.41867V12.977C6.41867 11.1443 7.05353 9.59307 8.32331 8.32331C9.59307 7.05353 11.1443 6.41867 12.977 6.41867H20.0233V2.72093C20.0233 1.95 20.2842 1.30393 20.806 0.78272C21.3278 0.260907 21.9742 0 22.7451 0C23.5167 0 24.1627 0.260907 24.6833 0.78272C25.2044 1.30393 25.4651 1.95 25.4651 2.72093V6.41867H34.5349V2.72093C34.5349 1.95 34.7958 1.30393 35.3176 0.78272C35.8393 0.260907 36.4858 0 37.2567 0C38.0282 0 38.6742 0.260907 39.1949 0.78272C39.7162 1.30393 39.9767 1.95 39.9767 2.72093V6.41867H47.0231C48.8558 6.41867 50.4069 7.05353 51.6767 8.32331C52.9464 9.59307 53.5813 11.1443 53.5813 12.977V20.0233H57.2791C58.05 20.0233 58.696 20.2842 59.2173 20.806C59.7391 21.3278 60 21.9742 60 22.7451C60 23.5167 59.7391 24.1627 59.2173 24.6833C58.696 25.2044 58.05 25.4651 57.2791 25.4651H53.5813V34.5349H57.2791C58.05 34.5349 58.696 34.7958 59.2173 35.3176C59.7391 35.8393 60 36.4858 60 37.2567C60 38.0282 59.7391 38.6742 59.2173 39.1949C58.696 39.7162 58.05 39.9767 57.2791 39.9767H53.5813V47.0231C53.5813 48.8558 52.9464 50.4069 51.6767 51.6767C50.4069 52.9464 48.8558 53.5813 47.0231 53.5813H39.9767V57.2791C39.9767 58.05 39.7158 58.696 39.194 59.2173C38.6722 59.7391 38.0258 60 37.2549 60C36.4833 60 35.8373 59.7391 35.3167 59.2173C34.7956 58.696 34.5349 58.05 34.5349 57.2791V53.5813H25.4651V57.2791C25.4651 58.05 25.2042 58.696 24.6824 59.2173C24.1607 59.7391 23.5142 60 22.7433 60C21.9718 60 21.3257 59.7391 20.8051 59.2173C20.2839 58.696 20.0233 58.05 20.0233 57.2791ZM47.0231 48.1396C47.3024 48.1396 47.5582 48.0231 47.7902 47.7902C48.0231 47.5582 48.1396 47.3024 48.1396 47.0231V12.977C48.1396 12.6976 48.0231 12.4419 47.7902 12.2097C47.5582 11.9769 47.3024 11.8605 47.0231 11.8605H12.977C12.6976 11.8605 12.4419 11.9769 12.2097 12.2097C11.9769 12.4419 11.8605 12.6976 11.8605 12.977V47.0231C11.8605 47.3024 11.9769 47.5582 12.2097 47.7902C12.4419 48.0231 12.6976 48.1396 12.977 48.1396H47.0231Z" fill="white"/>
</svg>
