<svg width="72" height="35" viewBox="0 0 72 35" fill="none" xmlns="http://www.w3.org/2000/svg">
<path d="M31.1351 23.3333C30.0324 23.3333 29.1081 22.9606 28.3622 22.2153C27.6162 21.4699 27.2432 20.5463 27.2432 19.4444V3.88889C27.2432 2.78704 27.6162 1.86343 28.3622 1.11806C29.1081 0.372685 30.0324 0 31.1351 0H42.8108C43.9135 0 44.8378 0.372685 45.5838 1.11806C46.3297 1.86343 46.7027 2.78704 46.7027 3.88889V19.4444C46.7027 20.5463 46.3297 21.4699 45.5838 22.2153C44.8378 22.9606 43.9135 23.3333 42.8108 23.3333H31.1351ZM33.0811 17.5H40.8649V5.83333H33.0811V17.5ZM54.4865 32.0833V25.2778C54.4865 24.1759 54.8595 23.2523 55.6054 22.5069C56.3514 21.7616 57.2757 21.3889 58.3784 21.3889H66.1622V17.5H57.3081C56.5297 17.5 55.8649 17.2245 55.3135 16.6736C54.7622 16.1227 54.4865 15.4259 54.4865 14.5833C54.4865 13.8056 54.7622 13.125 55.3135 12.5417C55.8649 11.9583 56.5622 11.6667 57.4054 11.6667H68.1081C69.2108 11.6667 70.1351 12.0394 70.8811 12.7847C71.627 13.5301 72 14.4537 72 15.5556V21.3889C72 22.4907 71.627 23.4144 70.8811 24.1597C70.1351 24.9051 69.2108 25.2778 68.1081 25.2778H60.3243V29.1667H69.0811C69.8595 29.1667 70.5405 29.4583 71.1243 30.0417C71.7081 30.625 72 31.3056 72 32.0833C72 32.9259 71.7081 33.6227 71.1243 34.1736C70.5405 34.7245 69.8595 35 69.0811 35H57.4054C56.5622 35 55.8649 34.7245 55.3135 34.1736C54.7622 33.6227 54.4865 32.9259 54.4865 32.0833ZM3.89189 23.3333C2.78919 23.3333 1.86486 22.9606 1.11892 22.2153C0.372973 21.4699 0 20.5463 0 19.4444V3.88889C0 2.78704 0.372973 1.86343 1.11892 1.11806C1.86486 0.372685 2.78919 0 3.89189 0H15.5676C16.6703 0 17.5946 0.372685 18.3405 1.11806C19.0865 1.86343 19.4595 2.78704 19.4595 3.88889V5.93056C19.4595 6.70833 19.1676 7.37269 18.5838 7.92361C18 8.47454 17.3189 8.75 16.5405 8.75C15.6973 8.75 15 8.47454 14.4486 7.92361C13.8973 7.37269 13.6216 6.67593 13.6216 5.83333H5.83784V17.5H13.6216C13.6216 16.7222 13.8973 16.0417 14.4486 15.4583C15 14.875 15.6973 14.5833 16.5405 14.5833C17.3189 14.5833 18 14.875 18.5838 15.4583C19.1676 16.0417 19.4595 16.7222 19.4595 17.5V19.4444C19.4595 20.5463 19.0865 21.4699 18.3405 22.2153C17.5946 22.9606 16.6703 23.3333 15.5676 23.3333H3.89189Z" fill="white"/>
</svg>
