<svg width="64" height="64" viewBox="0 0 64 64" fill="none" xmlns="http://www.w3.org/2000/svg">
<path d="M32.0667 50.6667C29.5778 50.6667 27.2 50.2 24.9333 49.2667C22.6667 48.3333 20.6444 46.9778 18.8667 45.2C17.0889 43.4222 15.7333 41.4 14.8 39.1333C13.8667 36.8667 13.4 34.4889 13.4 32C13.4 29.7333 13.7778 27.5667 14.5333 25.5C15.2889 23.4333 16.4 21.5556 17.8667 19.8667C18.4444 19.2444 19.1556 19.0333 20 19.2333C20.8444 19.4333 21.4444 19.9778 21.8 20.8667C22.7333 23.3111 23.9 25.6222 25.3 27.8C26.7 29.9778 28.3333 32 30.2 33.8667C32.0667 35.7333 34.0889 37.3667 36.2667 38.7667C38.4444 40.1667 40.7556 41.3333 43.2 42.2667C44.0889 42.6222 44.6333 43.2222 44.8333 44.0667C45.0333 44.9111 44.8222 45.6222 44.2 46.2C42.5111 47.6667 40.6333 48.7778 38.5667 49.5333C36.5 50.2889 34.3333 50.6667 32.0667 50.6667ZM46.9333 37.8667C46.2222 37.6444 45.7111 37.1889 45.4 36.5C45.0889 35.8111 45 35.0889 45.1333 34.3333C45.5333 32.2 45.4 30.1 44.7333 28.0333C44.0667 25.9667 42.9556 24.1556 41.4 22.6C39.8444 21.0444 38.0556 19.9444 36.0333 19.3C34.0111 18.6556 31.9556 18.5111 29.8667 18.8667C29.1111 19 28.4 18.9111 27.7333 18.6C27.0667 18.2889 26.6 17.7778 26.3333 17.0667C26.0667 16.3556 26.1 15.6667 26.4333 15C26.7667 14.3333 27.2889 13.9111 28 13.7333C31.0667 13.0667 34.1333 13.1667 37.2 14.0333C40.2667 14.9 42.9556 16.4889 45.2667 18.8C47.5333 21.0667 49.1111 23.7333 50 26.8C50.8889 29.8667 51 32.9333 50.3333 36C50.1556 36.7556 49.7333 37.3111 49.0667 37.6667C48.4 38.0222 47.6889 38.0889 46.9333 37.8667ZM32 8C31.2444 8 30.6111 7.74444 30.1 7.23333C29.5889 6.72222 29.3333 6.08889 29.3333 5.33333V2.66667C29.3333 1.91111 29.5889 1.27778 30.1 0.766667C30.6111 0.255556 31.2444 0 32 0C32.7556 0 33.3889 0.255556 33.9 0.766667C34.4111 1.27778 34.6667 1.91111 34.6667 2.66667V5.33333C34.6667 6.08889 34.4111 6.72222 33.9 7.23333C33.3889 7.74444 32.7556 8 32 8ZM32 64C31.2444 64 30.6111 63.7444 30.1 63.2333C29.5889 62.7222 29.3333 62.0889 29.3333 61.3333V58.6667C29.3333 57.9111 29.5889 57.2778 30.1 56.7667C30.6111 56.2556 31.2444 56 32 56C32.7556 56 33.3889 56.2556 33.9 56.7667C34.4111 57.2778 34.6667 57.9111 34.6667 58.6667V61.3333C34.6667 62.0889 34.4111 62.7222 33.9 63.2333C33.3889 63.7444 32.7556 64 32 64ZM49 15.0667C48.4667 14.5333 48.2 13.9 48.2 13.1667C48.2 12.4333 48.4667 11.8 49 11.2667L50.8667 9.4C51.3556 8.91111 51.9667 8.66667 52.7 8.66667C53.4333 8.66667 54.0667 8.91111 54.6 9.4C55.1333 9.93333 55.4 10.5667 55.4 11.3C55.4 12.0333 55.1333 12.6667 54.6 13.2L52.7333 15.0667C52.2 15.6 51.5778 15.8667 50.8667 15.8667C50.1556 15.8667 49.5333 15.6 49 15.0667ZM9.4 54.6C8.86667 54.0667 8.6 53.4333 8.6 52.7C8.6 51.9667 8.86667 51.3333 9.4 50.8L11.2667 48.9333C11.8 48.4 12.4222 48.1333 13.1333 48.1333C13.8444 48.1333 14.4667 48.4 15 48.9333C15.5333 49.4667 15.8 50.1 15.8 50.8333C15.8 51.5667 15.5333 52.2 15 52.7333L13.1333 54.6C12.6444 55.0889 12.0333 55.3333 11.3 55.3333C10.5667 55.3333 9.93333 55.0889 9.4 54.6ZM58.6667 34.6667C57.9111 34.6667 57.2778 34.4111 56.7667 33.9C56.2556 33.3889 56 32.7556 56 32C56 31.2444 56.2556 30.6111 56.7667 30.1C57.2778 29.5889 57.9111 29.3333 58.6667 29.3333H61.3333C62.0889 29.3333 62.7222 29.5889 63.2333 30.1C63.7444 30.6111 64 31.2444 64 32C64 32.7556 63.7444 33.3889 63.2333 33.9C62.7222 34.4111 62.0889 34.6667 61.3333 34.6667H58.6667ZM2.66667 34.6667C1.91111 34.6667 1.27778 34.4111 0.766667 33.9C0.255556 33.3889 0 32.7556 0 32C0 31.2444 0.255556 30.6111 0.766667 30.1C1.27778 29.5889 1.91111 29.3333 2.66667 29.3333H5.33333C6.08889 29.3333 6.72222 29.5889 7.23333 30.1C7.74444 30.6111 8 31.2444 8 32C8 32.7556 7.74444 33.3889 7.23333 33.9C6.72222 34.4111 6.08889 34.6667 5.33333 34.6667H2.66667ZM54.6 54.6C54.0667 55.1333 53.4333 55.4 52.7 55.4C51.9667 55.4 51.3333 55.1333 50.8 54.6L48.9333 52.7333C48.4 52.2 48.1333 51.5778 48.1333 50.8667C48.1333 50.1556 48.4 49.5333 48.9333 49C49.4667 48.4667 50.1 48.2 50.8333 48.2C51.5667 48.2 52.2 48.4667 52.7333 49L54.6 50.8667C55.0889 51.3556 55.3333 51.9667 55.3333 52.7C55.3333 53.4333 55.0889 54.0667 54.6 54.6ZM15.0667 15C14.5333 15.5333 13.9 15.8 13.1667 15.8C12.4333 15.8 11.8 15.5333 11.2667 15L9.4 13.1333C8.91111 12.6444 8.66667 12.0333 8.66667 11.3C8.66667 10.5667 8.91111 9.93333 9.4 9.4C9.93333 8.86667 10.5667 8.6 11.3 8.6C12.0333 8.6 12.6667 8.86667 13.2 9.4L15.0667 11.2667C15.6 11.8 15.8667 12.4222 15.8667 13.1333C15.8667 13.8444 15.6 14.4667 15.0667 15Z" fill="white"/>
</svg>
