<svg width="21" height="21" viewBox="0 0 21 21" fill="black" xmlns="http://www.w3.org/2000/svg">
<mask id="path-1-outside-1_661_5" maskUnits="userSpaceOnUse" x="0.414246" y="0.414062" width="21" height="21" fill="black">
<rect fill="white" x="0.414246" y="0.414062" width="21" height="21"/>
<path d="M17.9709 1.70703C18.3614 1.31661 18.9945 1.31654 19.3849 1.70703C19.7754 2.09753 19.7753 2.73059 19.3849 3.12109L11.9601 10.5459L19.3849 17.9707C19.7753 18.3612 19.7754 18.9943 19.3849 19.3848C18.9945 19.7752 18.3614 19.7751 17.9709 19.3848L10.5461 11.96L3.12128 19.3848C2.73077 19.7752 2.09771 19.7752 1.70721 19.3848C1.31673 18.9943 1.3168 18.3612 1.70721 17.9707L9.13202 10.5459L1.70721 3.12109C1.31671 2.73057 1.3167 2.09755 1.70721 1.70703C2.09773 1.31652 2.73075 1.31653 3.12128 1.70703L10.5461 9.13184L17.9709 1.70703Z"/>
</mask>
<path d="M17.9709 1.70703C18.3614 1.31661 18.9945 1.31654 19.3849 1.70703C19.7754 2.09753 19.7753 2.73059 19.3849 3.12109L11.9601 10.5459L19.3849 17.9707C19.7753 18.3612 19.7754 18.9943 19.3849 19.3848C18.9945 19.7752 18.3614 19.7751 17.9709 19.3848L10.5461 11.96L3.12128 19.3848C2.73077 19.7752 2.09771 19.7752 1.70721 19.3848C1.31673 18.9943 1.3168 18.3612 1.70721 17.9707L9.13202 10.5459L1.70721 3.12109C1.31671 2.73057 1.3167 2.09755 1.70721 1.70703C2.09773 1.31652 2.73075 1.31653 3.12128 1.70703L10.5461 9.13184L17.9709 1.70703Z" fill="black"/>
<path d="M17.9709 1.70703L17.2639 0.99982L17.2638 0.999924L17.9709 1.70703ZM19.3849 1.70703L20.0921 0.999994L20.0921 0.999924L19.3849 1.70703ZM19.3849 3.12109L20.0921 3.8282L20.0922 3.8281L19.3849 3.12109ZM11.9601 10.5459L11.253 9.83879L10.5459 10.5459L11.253 11.253L11.9601 10.5459ZM19.3849 17.9707L20.0922 17.2638L20.0921 17.2636L19.3849 17.9707ZM19.3849 19.3848L20.0921 20.0919L20.0921 20.0919L19.3849 19.3848ZM17.9709 19.3848L17.2638 20.0919L17.264 20.0921L17.9709 19.3848ZM10.5461 11.96L11.2532 11.2529L10.5461 10.5457L9.83897 11.2529L10.5461 11.96ZM3.12128 19.3848L3.82828 20.092L3.82838 20.0919L3.12128 19.3848ZM1.70721 19.3848L1.00011 20.0919L1.00018 20.0919L1.70721 19.3848ZM1.70721 17.9707L1.00011 17.2636L1 17.2637L1.70721 17.9707ZM9.13202 10.5459L9.83913 11.253L10.5462 10.5459L9.83913 9.83879L9.13202 10.5459ZM1.70721 3.12109L1.00009 3.82818L1.00011 3.8282L1.70721 3.12109ZM1.70721 1.70703L1.00012 0.999914L1.00011 0.999924L1.70721 1.70703ZM3.12128 1.70703L3.82838 0.999924L3.82837 0.999906L3.12128 1.70703ZM10.5461 9.13184L9.83897 9.83894L10.5461 10.546L11.2532 9.83894L10.5461 9.13184ZM17.9709 1.70703L18.6779 2.41424L18.6778 2.41414L19.3849 1.70703L20.0921 0.999924C19.3109 0.218807 18.0448 0.219121 17.2639 0.99982L17.9709 1.70703ZM19.3849 1.70703L18.6778 2.41407L18.6777 2.41409L19.3849 3.12109L20.0922 3.8281C20.8729 3.04712 20.873 1.78103 20.0921 0.999994L19.3849 1.70703ZM19.3849 3.12109L18.6778 2.41399L11.253 9.83879L11.9601 10.5459L12.6673 11.253L20.0921 3.8282L19.3849 3.12109ZM11.9601 10.5459L11.253 11.253L18.6778 18.6778L19.3849 17.9707L20.0921 17.2636L12.6673 9.83879L11.9601 10.5459ZM19.3849 17.9707L18.6777 18.6776L18.6778 18.6777L19.3849 19.3848L20.0921 20.0919C20.8732 19.3107 20.8727 18.0446 20.0922 17.2638L19.3849 17.9707ZM19.3849 19.3848L18.6778 18.6777L18.6778 18.6775L17.9709 19.3848L17.264 20.0921C18.0448 20.8725 19.3109 20.873 20.0921 20.0919L19.3849 19.3848ZM17.9709 19.3848L18.678 18.6777L11.2532 11.2529L10.5461 11.96L9.83897 12.6671L17.2638 20.0919L17.9709 19.3848ZM10.5461 11.96L9.83897 11.2529L2.41417 18.6777L3.12128 19.3848L3.82838 20.0919L11.2532 12.6671L10.5461 11.96ZM3.12128 19.3848L2.41428 18.6776L2.41425 18.6776L1.70721 19.3848L1.00018 20.0919C1.78122 20.8728 3.0473 20.8727 3.82828 20.092L3.12128 19.3848ZM1.70721 19.3848L2.41432 18.6777L2.41443 18.6777L1.70721 17.9707L1 17.2637C0.219312 18.0446 0.218989 19.3108 1.00011 20.0919L1.70721 19.3848ZM1.70721 17.9707L2.41432 18.6778L9.83913 11.253L9.13202 10.5459L8.42491 9.83879L1.00011 17.2636L1.70721 17.9707ZM9.13202 10.5459L9.83913 9.83879L2.41432 2.41399L1.70721 3.12109L1.00011 3.8282L8.42491 11.253L9.13202 10.5459ZM1.70721 3.12109L2.41434 2.41401L2.41432 2.41414L1.70721 1.70703L1.00011 0.999924C0.219047 1.78099 0.219102 3.04715 1.00009 3.82818L1.70721 3.12109ZM1.70721 1.70703L2.41431 2.41415L2.41419 2.41416L3.12128 1.70703L3.82837 0.999906C3.04733 0.218912 1.78117 0.218889 1.00012 0.999914L1.70721 1.70703ZM3.12128 1.70703L2.41417 2.41414L9.83897 9.83894L10.5461 9.13184L11.2532 8.42473L3.82838 0.999924L3.12128 1.70703ZM10.5461 9.13184L11.2532 9.83894L18.678 2.41414L17.9709 1.70703L17.2638 0.999924L9.83897 8.42473L10.5461 9.13184Z" fill="black" mask="url(#path-1-outside-1_661_5)"/>
</svg>
