<svg width="13" height="7" viewBox="0 0 13 7" fill="none" xmlns="http://www.w3.org/2000/svg">
<path d="M13 0.860416C13 0.632484 12.921 0.432099 12.7629 0.259259C12.6048 0.0864197 12.3964 0 12.1378 0L0.862245 0C0.603571 0 0.395196 0.0875002 0.237118 0.2625C0.0790399 0.4375 0 0.641667 0 0.875C0 0.96142 0.0884354 1.15586 0.265306 1.45833L5.57143 6.61111C5.70408 6.74074 5.8458 6.83796 5.99658 6.90278C6.14736 6.96759 6.31318 7 6.49403 7C6.67488 7 6.84269 6.96759 6.99745 6.90278C7.15221 6.83796 7.29592 6.74074 7.42857 6.61111L12.7347 1.45833C12.8231 1.37299 12.8895 1.28042 12.9337 1.1806C12.9779 1.081 13 0.974274 13 0.860416Z" fill="#D64D27"/>
</svg>
