<svg width="18" height="10" viewBox="0 0 18 10" fill="none" xmlns="http://www.w3.org/2000/svg">
<path d="M17.2969 8.36712C17.2969 8.67137 17.192 8.93885 16.9822 9.16956C16.7725 9.40027 16.496 9.51563 16.1527 9.51563L1.19101 9.51562C0.847768 9.51562 0.57127 9.39883 0.361513 9.16523C0.151755 8.93164 0.046875 8.65911 0.046875 8.34766C0.046875 8.2323 0.164222 7.97275 0.398916 7.56901L7.43973 0.690972C7.61575 0.51794 7.8038 0.388166 8.00388 0.30165C8.20395 0.215133 8.42398 0.171875 8.66395 0.171875C8.90393 0.171875 9.12659 0.215133 9.33195 0.30165C9.53731 0.388166 9.728 0.51794 9.90402 0.690972L16.9448 7.56901C17.0622 7.68292 17.1502 7.8065 17.2089 7.93973C17.2675 8.07268 17.2969 8.21514 17.2969 8.36712Z" fill="black"/>
</svg>
