<svg width="73" height="41" viewBox="0 0 73 41" fill="none" xmlns="http://www.w3.org/2000/svg">
<path d="M20.5885 0C31.9593 0 41.1764 9.17867 41.1764 20.5003C41.1764 31.822 31.9586 41 20.5885 41C9.21847 41 0 31.822 0 20.5003C0 9.17867 9.21777 0 20.5885 0ZM53.467 1.20086C59.1524 1.20086 63.7612 9.84067 63.7612 20.5003H63.7619C63.7619 31.1573 59.1531 39.7998 53.4677 39.7998C47.7823 39.7998 43.1734 31.1573 43.1734 20.5003C43.1734 9.84343 47.7816 1.20086 53.467 1.20086ZM69.3795 3.21105C71.3786 3.21105 73 10.9516 73 20.5003C73 30.0463 71.3793 37.7896 69.3795 37.7896C67.3797 37.7896 65.7597 30.0484 65.7597 20.5003C65.7597 10.9523 67.3804 3.21105 69.3795 3.21105Z" fill="black"/>
</svg>
