<svg width="20" height="20" viewBox="0 0 20 20" fill="none" xmlns="http://www.w3.org/2000/svg">
<g clip-path="url(#clip0_61_508)">
<path d="M20 10C20 8.02219 19.4135 6.08879 18.3147 4.4443C17.2159 2.79981 15.6541 1.51809 13.8268 0.761209C11.9996 0.00433286 9.98891 -0.193701 8.0491 0.192152C6.10929 0.578004 4.32746 1.53041 2.92894 2.92894C1.53041 4.32746 0.578004 6.10929 0.192152 8.0491C-0.193701 9.98891 0.00433286 11.9996 0.761209 13.8268C1.51809 15.6541 2.79981 17.2159 4.4443 18.3147C6.08879 19.4135 8.02219 20 10 20C10.0587 20 10.1173 20 10.176 19.996V12.2147H8.02734V9.71067H10.176V7.86667C10.176 5.73 11.4807 4.566 13.3867 4.566C14.03 4.56403 14.673 4.59764 15.3127 4.66667V6.90134H14C12.9647 6.90134 12.762 7.39334 12.762 8.116V9.71H15.2427L14.9187 12.214H12.762V19.614C14.8485 19.0144 16.6833 17.752 17.989 16.0176C19.2948 14.2832 20.0007 12.171 20 10Z" fill="white"/>
</g>
<defs>
<clipPath id="clip0_61_508">
<rect width="20" height="20" fill="white"/>
</clipPath>
</defs>
</svg>
