<svg width="20" height="20" viewBox="0 0 20 20" fill="none" xmlns="http://www.w3.org/2000/svg">
<g clip-path="url(#clip0_61_517)">
<path d="M15.8333 0H4.16667C3.06177 0.000176699 2.00216 0.439129 1.22082 1.22035C0.439475 2.00157 0.000353497 3.0611 0 4.166L0 15.8327C-5.65586e-08 16.9377 0.438874 17.9975 1.22011 18.7789C2.00135 19.5604 3.06099 19.9996 4.166 20H15.8327C16.3799 20.0001 16.9218 19.8924 17.4274 19.683C17.933 19.4737 18.3924 19.1668 18.7794 18.7798C19.1664 18.3929 19.4733 17.9336 19.6828 17.428C19.8922 16.9224 20 16.3806 20 15.8333V4.16667C20 3.0616 19.561 2.00179 18.7796 1.22039C17.9982 0.438987 16.9384 0 15.8333 0ZM6.66667 15.8333H4.16667V6.66667H6.66667V15.8333ZM5.41667 5.61C5.12625 5.61158 4.8419 5.52691 4.59966 5.36672C4.35742 5.20653 4.16819 4.97802 4.05595 4.71017C3.94372 4.44231 3.91353 4.14717 3.96921 3.86214C4.0249 3.57711 4.16395 3.31502 4.36874 3.10911C4.57354 2.90319 4.83486 2.7627 5.11958 2.70546C5.4043 2.64822 5.69961 2.67679 5.96807 2.78756C6.23654 2.89833 6.46607 3.08631 6.62759 3.32767C6.7891 3.56903 6.87533 3.85291 6.87533 4.14333C6.87534 4.53094 6.72191 4.90278 6.44859 5.17761C6.17526 5.45243 5.80426 5.60789 5.41667 5.61ZM16.6667 15.8333H14.1667V11.1633C14.1667 8.35667 10.8333 8.56933 10.8333 11.1633V15.8333H8.33333V6.66667H10.8333V8.13733C12 5.98267 16.6667 5.82333 16.6667 10.2V15.8333Z" fill="white"/>
</g>
<defs>
<clipPath id="clip0_61_517">
<rect width="20" height="20" fill="white"/>
</clipPath>
</defs>
</svg>
