<svg width="19" height="21" viewBox="0 0 19 21" fill="none" xmlns="http://www.w3.org/2000/svg">
<g clip-path="url(#clip0_61_515)">
<path d="M16.6335 4.49127C16.4855 4.41808 16.3414 4.33784 16.2018 4.25086C15.7958 3.9938 15.4236 3.69088 15.0932 3.34864C14.4449 2.65314 14.0122 1.79809 13.8438 0.879761H13.8486C13.7878 0.590344 13.7713 0.293974 13.7997 0H10.0344V13.9461C10.0344 14.133 10.0344 14.3186 10.0262 14.5015C10.0262 14.524 10.0262 14.5451 10.0227 14.5676C10.0238 14.5779 10.0238 14.5883 10.0227 14.5986V14.6065C9.98332 15.1077 9.81579 15.5918 9.53491 16.0163C9.25402 16.4407 8.86841 16.7925 8.4121 17.0404C7.93772 17.3 7.40088 17.4366 6.85457 17.4367C6.01486 17.4249 5.21372 17.0971 4.62427 16.524C4.03482 15.951 3.70439 15.1789 3.70439 14.3744C3.70439 13.5699 4.03482 12.7977 4.62427 12.2247C5.21372 11.6517 6.01486 11.3239 6.85457 11.3121C7.1866 11.3119 7.51658 11.362 7.83225 11.4607L7.83707 7.78839C6.87867 7.66973 5.90498 7.74263 4.97746 8.0025C4.04994 8.26237 3.1887 8.70357 2.4481 9.29825C1.79922 9.83832 1.25371 10.4827 0.836094 11.2024C0.309434 12.1336 0.0244672 13.1725 0.00526962 14.2314C-0.00338529 15.0457 0.133261 15.8554 0.409307 16.6256V16.6342C0.658103 17.2729 1.00229 17.8735 1.43111 18.4175C1.89626 18.9825 2.44569 19.4787 3.06174 19.8904V19.8805L3.0707 19.8891C4.21246 20.6077 5.54772 20.9927 6.91386 20.9974C7.89912 20.9961 8.87234 20.7899 9.76624 20.393C10.6488 19.9941 11.4369 19.4266 12.0822 18.7253C12.619 18.1291 13.0459 17.4496 13.3446 16.7161C13.6201 15.9775 13.7734 15.2022 13.799 14.4183V7.02091C13.8445 7.04733 14.4533 7.4324 14.4533 7.4324C15.1541 7.82788 15.9093 8.12734 16.6969 8.32206C17.4535 8.48875 18.2242 8.58977 18.9998 8.6239V5.04277C18.175 5.05337 17.3609 4.86363 16.6335 4.49127Z" fill="white"/>
</g>
<defs>
<clipPath id="clip0_61_515">
<rect width="19" height="21" fill="white"/>
</clipPath>
</defs>
</svg>
