<svg width="20" height="20" viewBox="0 0 20 20" fill="none" xmlns="http://www.w3.org/2000/svg">
<g clip-path="url(#clip0_61_510)">
<path d="M19.9453 5.88C19.9286 5.05071 19.7708 4.23032 19.4786 3.454C19.2212 2.78945 18.8279 2.18591 18.324 1.68197C17.82 1.17803 17.2165 0.784776 16.5519 0.527333C15.7756 0.235653 14.9555 0.0778562 14.1265 0.0606667C13.0571 0.012 12.7171 0 10.0023 0C7.28758 0 6.9469 0.012 5.8802 0.0586667C5.05088 0.0754581 4.23047 0.233267 3.45412 0.525333C2.7854 0.775798 2.17981 1.16996 1.68006 1.68C1.17239 2.17948 0.779108 2.78314 0.527351 3.44933C0.235526 4.22597 0.0777212 5.04653 0.0606687 5.876C0.0120004 6.94667 0 7.28667 0 10C0 12.7133 0.0120004 13.0553 0.0586686 14.122C0.0754088 14.9513 0.233224 15.7717 0.525351 16.548C0.782766 17.2126 1.17602 17.8161 1.67999 18.3201C2.18395 18.824 2.78752 19.2173 3.45211 19.4747C4.22857 19.7664 5.04892 19.9242 5.8782 19.9413C6.9449 19.9887 7.28491 20 10.0003 20C12.7158 20 13.0558 19.988 14.1225 19.9413C14.9518 19.9246 15.7722 19.7668 16.5486 19.4747C17.2134 19.2176 17.8171 18.8245 18.3211 18.3205C18.8251 17.8165 19.2183 17.2128 19.4753 16.548C19.767 15.7715 19.9248 14.9512 19.942 14.122C19.9893 13.0553 20.0007 12.7153 20.0007 10C20.0007 7.28467 19.9927 6.94667 19.9453 5.88ZM18.1453 14.0453C18.139 14.6792 18.0228 15.3072 17.8019 15.9013C17.635 16.3329 17.3797 16.7247 17.0524 17.0517C16.725 17.3787 16.3329 17.6336 15.9012 17.8C15.3069 18.0205 14.679 18.1367 14.0451 18.1433C12.9904 18.1907 12.6738 18.202 10.0057 18.202C7.33758 18.202 7.01623 18.19 5.9662 18.1433C5.33231 18.1371 4.70431 18.0209 4.11014 17.8C3.67605 17.6408 3.28343 17.3858 2.96143 17.054C2.63047 16.7313 2.37561 16.3389 2.21541 15.9053C1.9949 15.3111 1.87874 14.6832 1.87206 14.0493C1.82473 12.9947 1.81339 12.678 1.81339 10.01C1.81339 7.342 1.82539 7.02067 1.87206 5.97067C1.87829 5.3368 1.99446 4.70882 2.21541 4.11467C2.37512 3.6792 2.63236 3.28606 2.96743 2.96533C3.28945 2.63451 3.68119 2.37965 4.11414 2.21933C4.7076 1.99919 5.33459 1.88304 5.96753 1.876C7.02223 1.82867 7.33891 1.81733 10.007 1.81733C12.6751 1.81733 12.9964 1.82933 14.0465 1.876C14.6804 1.88228 15.3083 1.99844 15.9025 2.21933C16.3366 2.37849 16.7293 2.63348 17.0512 2.96533C17.3832 3.28773 17.639 3.68016 17.7999 4.114C18.0198 4.70861 18.1353 5.33674 18.1413 5.97067C18.1886 7.02533 18.1999 7.342 18.1999 10.01C18.1999 12.678 18.1926 12.9907 18.1453 14.0453Z" fill="white"/>
<path d="M10.0025 4.39844C8.89492 4.39844 7.81218 4.72687 6.89123 5.34221C5.97029 5.95754 5.2525 6.83214 4.82864 7.85541C4.40477 8.87867 4.29387 10.0046 4.50995 11.0909C4.72604 12.1772 5.2594 13.1751 6.0426 13.9582C6.8258 14.7414 7.82367 15.2748 8.91 15.4908C9.99633 15.7069 11.1223 15.596 12.1456 15.1722C13.1689 14.7483 14.0436 14.0305 14.6589 13.1096C15.2743 12.1887 15.6027 11.106 15.6027 9.99843C15.6027 9.26303 15.4579 8.53483 15.1764 7.85541C14.895 7.17598 14.4825 6.55865 13.9625 6.03864C13.4424 5.51863 12.8251 5.10614 12.1456 4.82471C11.4662 4.54329 10.738 4.39844 10.0025 4.39844ZM10.0025 13.6351C9.28377 13.6356 8.581 13.423 7.98307 13.0241C7.38515 12.6253 6.91895 12.0581 6.6434 11.3942C6.36785 10.7304 6.29535 9.99979 6.43506 9.29476C6.57477 8.58973 6.9204 7.94197 7.42827 7.43337C7.93613 6.92477 8.58343 6.57819 9.28827 6.43745C9.99312 6.29672 10.7239 6.36814 11.3881 6.64271C12.0524 6.91727 12.6203 7.38264 13.02 7.97995C13.4198 8.57726 13.6335 9.2797 13.634 9.99843C13.634 10.9622 13.2511 11.8866 12.5696 12.5681C11.8881 13.2496 10.9637 13.6324 9.99987 13.6324L10.0025 13.6351Z" fill="white"/>
<path d="M16.4951 4.59053C16.4951 4.80505 16.4315 5.01476 16.3123 5.19314C16.1931 5.37151 16.0237 5.51054 15.8255 5.59263C15.6273 5.67473 15.4092 5.6962 15.1988 5.65435C14.9884 5.6125 14.7951 5.5092 14.6434 5.3575C14.4917 5.20581 14.3884 5.01254 14.3465 4.80213C14.3047 4.59173 14.3262 4.37364 14.4083 4.17545C14.4904 3.97725 14.6294 3.80784 14.8078 3.68866C14.9861 3.56947 15.1958 3.50586 15.4104 3.50586C15.6981 3.50586 15.974 3.62014 16.1774 3.82355C16.3808 4.02697 16.4951 4.30285 16.4951 4.59053Z" fill="white"/>
</g>
<defs>
<clipPath id="clip0_61_510">
<rect width="20" height="20" fill="white"/>
</clipPath>
</defs>
</svg>
