<svg width="13" height="25" viewBox="0 0 13 25" fill="none" xmlns="http://www.w3.org/2000/svg">
<path d="M10.2917 23.8735L0.722222 14.0776C0.481481 13.8327 0.300926 13.571 0.180556 13.2927C0.0601852 13.0143 0 12.7082 0 12.3743C0 12.0404 0.0601852 11.7306 0.180556 11.4449C0.300926 11.1592 0.481481 10.8939 0.722222 10.649L10.2917 0.853077C10.4502 0.689812 10.6221 0.567363 10.8075 0.48573C10.9924 0.404098 11.1906 0.363281 11.4021 0.363281C11.8254 0.363281 12.1975 0.509201 12.5185 0.801038C12.8395 1.09287 13 1.47757 13 1.95512V22.7714C13 23.249 12.8375 23.6337 12.5125 23.9255C12.1875 24.2174 11.8083 24.3633 11.375 24.3633C11.2145 24.3633 10.8534 24.2 10.2917 23.8735Z" fill="black"/>
</svg>
