<svg width="13" height="25" viewBox="0 0 13 25" fill="black" xmlns="http://www.w3.org/2000/svg">
<path d="M1.59792 24.3633C1.17461 24.3633 0.802469 24.2174 0.481481 23.9255C0.160494 23.6337 0 23.249 0 22.7714V1.95512C0 1.47757 0.1625 1.09287 0.4875 0.801038C0.8125 0.509201 1.19167 0.363281 1.625 0.363281C1.78549 0.363281 2.14661 0.526547 2.70833 0.853077L12.2778 10.649C12.5185 10.8939 12.6991 11.1555 12.8194 11.4339C12.9398 11.7123 13 12.0184 13 12.3523C13 12.6861 12.9398 12.9959 12.8194 13.2816C12.6991 13.5674 12.5185 13.8327 12.2778 14.0776L2.70833 23.8735C2.54985 24.0368 2.37792 24.1592 2.19255 24.2408C2.00758 24.3225 1.80937 24.3633 1.59792 24.3633Z" fill="black"/>
</svg>
